<svg width="606" height="591" viewBox="0 0 606 591" fill="none" xmlns="http://www.w3.org/2000/svg">
<path d="M88.7473 544.63C207.075 606.456 398.925 606.457 517.253 544.632C635.582 482.803 635.582 382.565 517.253 320.738C398.923 258.911 207.075 258.911 88.7459 320.737C-29.5822 382.564 -29.5822 482.805 88.7473 544.63Z" fill="#F5F5F5"/>
<path d="M238.199 490.932C270.081 506.132 321.771 506.132 353.653 490.932C385.536 475.736 385.536 451.095 353.653 435.895C321.771 420.699 270.081 420.699 238.199 435.895C206.317 451.095 206.317 475.736 238.199 490.932Z" fill="#EBEBEB"/>
<path d="M514.324 453.307L400.374 519.109C398.691 520.08 395.964 520.08 394.281 519.109L251.743 436.803C250.06 435.831 250.06 434.255 251.743 433.284L365.697 367.482C367.38 366.511 370.108 366.511 371.791 367.482L514.324 449.788C516.006 450.761 516.006 452.336 514.324 453.307Z" fill="#EBEBEB"/>
<path d="M546.04 91.5918V121.81C546.04 121.81 533.621 127.62 510.81 127.62C488.01 127.62 475.614 121.8 475.614 121.8V92.1717L499.37 24.9329C499.058 27.0399 500.296 29.2033 503.082 30.8093C507.52 33.3738 511.795 33.6638 516.778 31.6679C517.414 31.423 518.004 31.133 518.563 30.8093C521.517 29.1034 522.733 26.7725 522.198 24.5543L546.04 91.5918Z" fill="#F3541C"/>
<path opacity="0.5" d="M546.04 91.5918V121.81C546.04 121.81 533.621 127.62 510.81 127.62C488.01 127.62 475.614 121.8 475.614 121.8V92.1717L499.37 24.9329C499.058 27.0399 500.296 29.2033 503.082 30.8093C507.52 33.3738 511.795 33.6638 516.778 31.6679C517.414 31.423 518.004 31.133 518.563 30.8093C521.517 29.1034 522.733 26.7725 522.198 24.5543L546.04 91.5918Z" fill="white"/>
<path d="M543.311 303.416C541.593 305.792 539.065 308.02 535.717 309.954C521.961 317.898 499.657 317.898 485.9 309.954C482.551 308.02 480.025 305.792 478.307 303.416C476.626 301.092 475.728 298.626 475.607 296.149V310.683V311.84C475.852 316.851 479.278 321.819 485.9 325.645C499.657 333.589 521.961 333.589 535.717 325.645C542.596 321.673 546.034 316.468 546.034 311.261V295.57C546.034 298.242 545.122 300.912 543.311 303.416Z" fill="#F3541C"/>
<path d="M543.311 287.725C541.592 290.101 539.065 292.329 535.717 294.263C534.912 294.727 534.072 295.159 533.212 295.57C520.234 301.763 501.385 301.763 488.407 295.57C487.547 295.159 486.707 294.727 485.902 294.263C482.552 292.329 480.026 290.102 478.308 287.725C476.628 285.401 475.73 282.935 475.609 280.458V294.992V296.149C475.73 298.626 476.628 301.092 478.308 303.416C480.026 305.792 482.554 308.02 485.902 309.954C499.658 317.898 521.962 317.898 535.718 309.954C539.068 308.02 541.594 305.793 543.312 303.416C545.123 300.912 546.035 298.242 546.035 295.57V279.879C546.034 282.551 545.122 285.221 543.311 287.725Z" fill="#FFEDE7"/>
<path d="M543.311 272.035C541.592 274.411 539.065 276.639 535.717 278.573C534.912 279.037 534.072 279.47 533.212 279.881C520.234 286.074 501.385 286.074 488.407 279.881C487.547 279.47 486.707 279.037 485.902 278.573C482.552 276.639 480.026 274.411 478.308 272.035C476.628 269.711 475.73 267.245 475.609 264.768V279.302V280.459C475.73 282.936 476.628 285.402 478.308 287.726C480.026 290.102 482.554 292.33 485.902 294.264C486.707 294.729 487.547 295.161 488.407 295.572C501.385 301.765 520.235 301.765 533.212 295.572C534.072 295.161 534.912 294.729 535.717 294.264C539.066 292.33 541.592 290.103 543.311 287.726C545.122 285.222 546.034 282.552 546.034 279.881V264.189C546.034 266.861 545.122 269.53 543.311 272.035Z" fill="#F3541C"/>
<path d="M475.607 92.1717V263.61V264.767C475.728 267.244 476.626 269.71 478.307 272.034C480.025 274.409 482.552 276.638 485.9 278.572C486.705 279.036 487.545 279.468 488.405 279.879C491.655 281.43 495.272 282.591 499.073 283.366L492.705 101.474L475.607 92.1717Z" fill="#F3541C"/>
<path d="M528.923 101.473L522.555 283.364C526.352 282.59 529.966 281.429 533.213 279.879C534.073 279.468 534.913 279.036 535.718 278.572C539.067 276.638 541.593 274.411 543.312 272.034C545.123 269.53 546.035 266.86 546.035 264.188V91.5933L528.923 101.473Z" fill="#F3541C"/>
<path d="M475.607 92.1717V263.61V264.767C475.728 267.244 476.626 269.71 478.307 272.034C480.025 274.409 482.552 276.638 485.9 278.572C486.705 279.036 487.545 279.468 488.405 279.879C491.655 281.43 495.272 282.591 499.073 283.366L492.705 101.474L475.607 92.1717Z" fill="#FA7252"/>
<path d="M528.923 101.473L522.555 283.364C526.352 282.59 529.966 281.429 533.213 279.879C534.073 279.468 534.913 279.036 535.718 278.572C539.067 276.638 541.593 274.411 543.312 272.034C545.123 269.53 546.035 266.86 546.035 264.188V91.5933L528.923 101.473Z" fill="#FF7D5F"/>
<path d="M492.707 101.474V281.616C494.749 282.324 496.875 282.918 499.075 283.366C502.866 284.137 506.84 284.524 510.814 284.524C514.788 284.524 518.763 284.137 522.554 283.364C524.755 282.915 526.881 282.321 528.922 281.613V101.473L492.707 101.474Z" fill="#F55E29"/>
<path d="M518.56 30.8093C518.003 31.133 517.412 31.423 516.775 31.6679C511.792 33.6638 507.517 33.3738 503.08 30.8093C500.293 29.2033 499.055 27.0399 499.367 24.9329L507.475 2.22952C508.1 0.736135 509.449 0 510.809 0H510.82C512.181 0 513.54 0.736135 514.165 2.21826L522.184 24.5205C522.184 24.5317 522.195 24.543 522.195 24.5543C522.73 26.7725 521.514 29.1034 518.56 30.8093Z" fill="#FA5C37"/>
<path d="M535.718 325.643C523.897 332.47 505.779 333.413 492.182 328.508C491.419 328.233 490.676 327.932 489.946 327.621C489.605 327.476 489.257 327.341 488.925 327.187C487.882 326.709 486.868 326.201 485.902 325.645C479.28 321.821 475.854 316.851 475.609 311.84V354.56C475.345 359.956 478.77 365.402 485.902 369.522C486.752 370.013 487.636 370.472 488.547 370.902C488.887 371.063 489.249 371.198 489.595 371.35C490.178 371.605 490.755 371.868 491.358 372.099C491.824 372.277 492.31 372.427 492.785 372.591C493.294 372.766 493.79 372.953 494.31 373.111C494.875 373.284 495.458 373.427 496.036 373.582C496.482 373.702 496.922 373.833 497.376 373.941C498.038 374.099 498.713 374.225 499.386 374.359C499.767 374.434 500.143 374.522 500.528 374.59C501.288 374.724 502.06 374.826 502.831 374.931C503.136 374.971 503.437 375.024 503.744 375.059C504.601 375.16 505.465 375.23 506.331 375.294C506.554 375.311 506.775 375.336 506.999 375.35C507.942 375.409 508.886 375.437 509.833 375.453C509.981 375.456 510.128 375.464 510.275 375.466C511.291 375.474 512.305 375.453 513.319 375.411C513.397 375.408 513.473 375.408 513.55 375.404C514.621 375.356 515.685 375.277 516.746 375.173C516.766 375.171 516.784 375.17 516.802 375.169C523.336 374.52 529.599 372.797 534.779 370.011C535.089 369.845 535.417 369.696 535.718 369.522C542.597 365.549 546.036 360.344 546.036 355.138V311.261C546.036 316.466 542.597 321.673 535.718 325.643Z" fill="#FA5C37"/>
<path d="M110.88 350.585C106.81 349.557 85.094 337.193 82.8902 335.693C80.685 334.191 76.3097 331.082 76.3097 325.721C76.3097 320.966 76.8079 276.243 80.6864 254.631C82.5947 244 89.489 230.071 102.999 221.698C116.509 213.323 130.08 207.262 141.529 212.011C152.98 216.76 163.414 225.512 167.915 236.069C172.415 246.625 175.503 267.765 175.822 275.942C176.142 284.119 175.822 312.165 175.822 314.652C175.822 317.139 175.372 320.385 161.965 328.688C148.557 336.992 130.028 346.98 124.3 349.559C119.941 351.521 114.57 351.515 110.88 350.585Z" fill="#F3541C"/>
<path d="M107.526 227.508C106.292 228.22 102.713 226.455 102.175 225.571C101.638 224.687 101.501 217.013 104.17 212.773C106.839 208.532 123.531 200.731 127.655 201.307C131.777 201.881 134.801 205.107 135.314 206.199C135.828 207.292 136.39 214.429 135.314 215.886C134.239 217.343 130.43 215.103 130.096 214.476C129.761 213.848 131.353 208.644 128.659 207.556C126.215 206.57 114.605 211.506 109.859 215.485C107.806 217.206 107.909 221.508 107.997 223.636C108.088 225.761 108.152 227.146 107.526 227.508Z" fill="#F79978"/>
<path d="M104.17 277.878C106.57 254.631 110.88 241.069 133.611 230.947C156.34 220.824 165.15 229.445 168.374 237.195C172.624 248.063 175.514 268.043 175.823 275.939C176.142 284.116 175.823 312.162 175.823 314.649C175.823 317.136 175.372 320.382 161.965 328.685C148.558 336.989 130.028 346.977 124.3 349.556C119.942 351.519 114.57 351.514 110.88 350.583C110.316 350.441 109.401 350.074 108.256 349.554C101.178 340.503 101.981 299.096 104.17 277.878Z" fill="#F79978"/>
<path d="M157.156 221.868C151.23 218.393 141.483 216.103 127.193 222.472C101.634 233.862 95.1477 248.12 92.5695 273.095C92.0966 277.675 91.4113 283.133 91.1158 289.007L89.0062 287.733C89.3046 281.396 89.9153 275.972 90.4515 271.079C93.2169 245.863 100.83 231.925 125.248 221.05C138.761 215.032 147.652 215.823 153.528 218.781C154.648 219.643 155.699 220.489 157.156 221.868Z" fill="#E03B14"/>
<path d="M158.044 222.515C152.117 219.042 142.371 216.75 128.081 223.118C102.523 234.509 96.0353 248.766 93.4572 273.741C92.9843 278.321 92.299 283.779 92.0035 289.653L89.8939 288.379C90.1923 282.042 90.803 276.618 91.3392 271.727C94.1045 246.511 101.718 232.572 126.136 221.698C139.649 215.679 148.779 216.678 154.656 219.637C155.776 220.497 156.588 221.136 158.044 222.515Z" fill="#F79978"/>
<path d="M149.774 244.607L142.051 240.2C141.259 239.748 140.247 240.022 139.792 240.813L131.865 254.593C131.41 255.384 131.679 256.397 132.469 256.858L140.098 261.307C140.886 261.766 141.895 261.5 142.352 260.71L150.381 246.856C150.838 246.066 150.567 245.058 149.774 244.607Z" fill="#E03B14"/>
<path d="M141.488 259.728L149.098 246.598C149.327 246.203 149.191 245.7 148.795 245.474L141.792 241.478C141.396 241.251 140.89 241.389 140.662 241.784L133.142 254.858C132.914 255.253 133.049 255.76 133.443 255.989L140.361 260.025C140.755 260.257 141.261 260.123 141.488 259.728Z" fill="#F79978"/>
<path d="M143.12 253.45C143.525 253.216 143.853 252.698 143.853 252.293V246.01C143.853 245.604 143.525 245.467 143.12 245.7C142.714 245.934 142.386 246.452 142.386 246.857V253.139C142.386 253.546 142.714 253.684 143.12 253.45Z" fill="#F3541C"/>
<path d="M139.031 255.81C139.436 255.577 139.764 255.059 139.764 254.653V248.372C139.764 247.966 139.436 247.828 139.031 248.062C138.626 248.296 138.298 248.814 138.298 249.219V255.501C138.298 255.906 138.626 256.045 139.031 255.81Z" fill="#F3541C"/>
<path d="M114.702 297.521C114.702 297.521 118.535 300.678 121.282 312.555C124.028 324.43 125.702 339.402 122.666 341.194C119.629 342.987 115.311 339.23 114.234 337.934C112.025 335.274 112.575 307.039 114.702 297.521Z" fill="#E03B14"/>
<path d="M114.701 297.521C114.701 297.521 118.535 300.678 121.282 312.555C124.027 324.43 125.702 339.402 122.665 341.194L169.165 313.802C172.202 312.009 172.949 296.285 170.204 284.41C168.395 276.585 165.063 272.872 163 271.25C162.041 270.495 160.72 270.413 159.669 271.033L114.701 297.521Z" fill="#F3541C"/>
<path d="M162.015 273.043C164.242 274.149 168.011 277.168 169.715 285.212C170.253 287.751 169.359 290.226 167.813 291.319C166.265 292.413 133.034 311.32 128.628 313.947C124.828 316.212 122.85 313.201 122.015 311.32H122.012C120.626 307.968 119.39 305.362 118.348 303.364C116.401 298.923 114.701 297.52 114.701 297.52L158.992 273.178C159.916 272.635 161.055 272.567 162.015 273.043Z" fill="#E03B14"/>
<path d="M92.5882 291.013C92.5882 291.013 93.9223 296.197 93.8435 298.409C93.8252 298.92 93.161 299.183 92.9583 299.189C91.7748 299.217 88.8983 297.425 88.6562 296.944C88.4128 296.463 89.8074 290.638 89.8074 290.638L92.5882 291.013Z" fill="#E03B14"/>
<path d="M94.0235 289.041C94.0235 287.559 92.8217 286.357 91.3398 286.357C89.858 286.357 88.6561 287.559 88.6561 289.041C88.6561 290.523 89.858 291.725 91.3398 291.725C92.8231 291.725 94.0235 290.523 94.0235 289.041Z" fill="#E03B14"/>
<path d="M127.654 207.432C130.597 207.15 133.364 207.407 134.073 210.369C134.781 213.329 134.523 215.989 134.073 216.365C132.533 216.308 130.346 214.943 130.096 214.474C129.761 213.847 131.353 208.643 128.659 207.555C128.413 207.456 128.069 207.42 127.654 207.432Z" fill="#E03B14"/>
<path d="M159.926 270.881C160.849 270.338 161.988 270.269 162.947 270.746C165.175 271.852 168.945 274.871 170.648 282.915C171.186 285.454 170.292 287.929 168.745 289.022C167.197 290.116 133.967 309.023 129.561 311.65C125.761 313.915 123.782 310.904 122.948 309.023C118.356 299.396 114.704 297.521 114.704 297.521L159.926 270.881Z" fill="#F3541C"/>
<path d="M151.953 434.633L114.691 413.117C112.843 412.05 111.344 409.453 111.344 407.319L111.326 407.748C111.326 405.613 112.824 403.018 114.672 401.951L189.612 358.678C191.46 357.611 194.457 357.611 196.307 358.678L233.569 380.195C235.418 381.262 236.915 383.858 236.915 385.992L236.934 385.563C236.934 387.698 235.435 390.294 233.587 391.361L158.647 434.633C156.798 435.702 153.801 435.702 151.953 434.633Z" fill="#4F64D9"/>
<path opacity="0.7" d="M151.953 434.633L114.691 413.117C112.843 412.05 111.344 409.453 111.344 407.319L111.326 407.748C111.326 405.613 112.824 403.018 114.672 401.951L189.612 358.678C191.46 357.611 194.457 357.611 196.307 358.678L233.569 380.195C235.418 381.262 236.915 383.858 236.915 385.992L236.934 385.563C236.934 387.698 235.435 390.294 233.587 391.361L158.647 434.633C156.798 435.702 153.801 435.702 151.953 434.633Z" fill="black"/>
<path d="M155.281 378.5L114.672 401.949C112.823 403.016 111.326 405.613 111.326 407.747L111.344 407.318C111.344 409.453 112.843 412.048 114.691 413.115L151.953 434.632C152.877 435.166 154.089 435.433 155.299 435.433L155.281 378.5Z" fill="#4F64D9"/>
<path opacity="0.7" d="M155.281 378.5L114.672 401.949C112.823 403.016 111.326 405.613 111.326 407.747L111.344 407.318C111.344 409.453 112.843 412.048 114.691 413.115L151.953 434.632C152.877 435.166 154.089 435.433 155.299 435.433L155.281 378.5Z" fill="black"/>
<path d="M114.671 405.816L151.933 427.333C153.782 428.4 156.778 428.4 158.627 427.333L233.567 384.06C235.416 382.993 235.416 381.262 233.567 380.195L196.305 358.678C194.456 357.611 191.459 357.611 189.61 358.678L114.671 401.951C112.823 403.018 112.823 404.748 114.671 405.816Z" fill="#4F64D9"/>
<path opacity="0.5" d="M114.671 405.816L151.933 427.333C153.782 428.4 156.778 428.4 158.627 427.333L233.567 384.06C235.416 382.993 235.416 381.262 233.567 380.195L196.305 358.678C194.456 357.611 191.459 357.611 189.61 358.678L114.671 401.951C112.823 403.018 112.823 404.748 114.671 405.816Z" fill="black"/>
<path d="M114.671 398.742V402.308L153.349 424.643C154.543 425.333 156.015 425.333 157.21 424.643L233.566 380.552V376.866L155.281 414.821L114.671 398.742Z" fill="#4F64D9"/>
<path d="M151.935 420.258L114.672 398.742C112.824 397.675 111.326 395.078 111.326 392.944V386.051C111.326 383.916 112.824 381.321 114.672 380.254L189.612 336.981C191.46 335.914 194.457 335.914 196.307 336.981L233.569 358.498C235.418 359.565 236.915 362.162 236.915 364.295V371.188C236.915 373.323 235.417 375.799 233.569 376.866L158.629 420.258C156.78 421.327 153.782 421.327 151.935 420.258Z" fill="#4F64D9"/>
<path opacity="0.6" d="M151.935 420.258L114.672 398.742C112.824 397.675 111.326 395.078 111.326 392.944V386.051C111.326 383.916 112.824 381.321 114.672 380.254L189.612 336.981C191.46 335.914 194.457 335.914 196.307 336.981L233.569 358.498C235.418 359.565 236.915 362.162 236.915 364.295V371.188C236.915 373.323 235.417 375.799 233.569 376.866L158.629 420.258C156.78 421.327 153.782 421.327 151.935 420.258Z" fill="black"/>
<path d="M155.281 356.803L114.672 380.252C112.823 381.319 111.326 383.916 111.326 386.05V392.943C111.326 395.078 112.824 397.673 114.672 398.74L151.935 420.257C152.859 420.791 154.069 421.058 155.281 421.058V356.803Z" fill="#4F64D9"/>
<path opacity="0.7" d="M155.281 356.803L114.672 380.252C112.823 381.319 111.326 383.916 111.326 386.05V392.943C111.326 395.078 112.824 397.673 114.672 398.74L151.935 420.257C152.859 420.791 154.069 421.058 155.281 421.058V356.803Z" fill="black"/>
<path d="M114.671 384.119L151.933 405.636C153.782 406.703 156.778 406.703 158.627 405.636L233.567 362.363C235.416 361.296 235.416 359.565 233.567 358.498L196.305 336.981C194.456 335.914 191.459 335.914 189.61 336.981L114.671 380.254C112.823 381.321 112.823 383.051 114.671 384.119Z" fill="#4F64D9"/>
<path opacity="0.5" d="M114.671 384.119L151.933 405.636C153.782 406.703 156.778 406.703 158.627 405.636L233.567 362.363C235.416 361.296 235.416 359.565 233.567 358.498L196.305 336.981C194.456 335.914 191.459 335.914 189.61 336.981L114.671 380.254C112.823 381.321 112.823 383.051 114.671 384.119Z" fill="black"/>
<path d="M166.647 367.017C162.52 369.4 162.52 373.249 166.647 375.613C170.775 377.976 177.467 377.976 181.594 375.613C185.722 373.25 185.722 369.402 181.594 367.017C177.467 364.633 170.775 364.633 166.647 367.017Z" fill="#4F64D9"/>
<path d="M227.496 369.531C226.774 369.941 226.188 370.96 226.188 371.807C226.188 372.655 226.774 373.009 227.496 372.6C228.218 372.19 228.803 371.171 228.803 370.324C228.803 369.476 228.218 369.122 227.496 369.531Z" fill="#4F64D9"/>
<path d="M227.496 374.587C226.774 374.997 226.188 376.016 226.188 376.863C226.188 377.71 226.774 378.065 227.496 377.656C228.218 377.246 228.803 376.227 228.803 375.38C228.803 374.531 228.218 374.178 227.496 374.587Z" fill="#4F64D9"/>
<path d="M136.331 463.008C136.164 463.008 135.994 462.966 135.837 462.874L99.7333 441.92C97.8081 440.803 96.6598 438.807 96.6626 436.582C96.6654 434.355 97.818 432.362 99.7446 431.248L126.214 415.964C126.683 415.692 127.288 415.853 127.558 416.324C127.83 416.795 127.67 417.397 127.198 417.669L100.728 432.953C99.4167 433.71 98.6328 435.068 98.63 436.583C98.6286 438.099 99.4096 439.457 100.72 440.219L136.824 461.172C137.294 461.445 137.454 462.048 137.181 462.517C137.001 462.832 136.671 463.008 136.331 463.008Z" fill="#4F64D9"/>
<path d="M181.563 442.814L173.737 411.385C173.626 410.936 173.476 410.523 173.31 410.127L175.587 409.796L170.622 406.925C168.735 405.824 166.296 405.838 163.908 407.223L131.27 426.149C127.027 428.609 123.589 434.581 123.591 439.487L123.599 477.269C123.6 480.271 124.336 482.344 125.835 483.062L125.825 483.065L130.5 485.762L129.37 482.784C129.453 482.747 129.531 482.72 129.615 482.679C134.983 480.116 136.927 475.449 138.53 470.814L144.735 452.878C146.338 448.241 150.333 442.929 153.657 441.012C156.981 439.095 161.645 440.996 164.076 445.256L167.191 450.719C168.245 452.567 169.723 453.966 171.33 454.802L176.095 457.568L174.884 455.689C175.853 455.669 176.796 455.428 177.65 454.934C180.997 452.999 182.749 447.574 181.563 442.814Z" fill="#4F64D9"/>
<path opacity="0.7" d="M181.563 442.814L173.737 411.385C173.626 410.936 173.476 410.523 173.31 410.127L175.587 409.796L170.622 406.925C168.735 405.824 166.296 405.838 163.908 407.223L131.27 426.149C127.027 428.609 123.589 434.581 123.591 439.487L123.599 477.269C123.6 480.271 124.336 482.344 125.835 483.062L125.825 483.065L130.5 485.762L129.37 482.784C129.453 482.747 129.531 482.72 129.615 482.679C134.983 480.116 136.927 475.449 138.53 470.814L144.735 452.878C146.338 448.241 150.333 442.929 153.657 441.012C156.981 439.095 161.645 440.996 164.076 445.256L167.191 450.719C168.245 452.567 169.723 453.966 171.33 454.802L176.095 457.568L174.884 455.689C175.853 455.669 176.796 455.428 177.65 454.934C180.997 452.999 182.749 447.574 181.563 442.814Z" fill="black"/>
<path d="M173.31 410.127L175.587 409.796L170.622 406.925C168.735 405.824 166.296 405.838 163.908 407.223L131.27 426.149C129.553 427.146 127.984 428.729 126.705 430.571L134.466 435.304L174.114 412.903L173.737 411.387C173.626 410.936 173.476 410.523 173.31 410.127Z" fill="#4F64D9"/>
<path opacity="0.5" d="M173.31 410.127L175.587 409.796L170.622 406.925C168.735 405.824 166.296 405.838 163.908 407.223L131.27 426.149C129.553 427.146 127.984 428.729 126.705 430.571L134.466 435.304L174.114 412.903L173.737 411.387C173.626 410.936 173.476 410.523 173.31 410.127Z" fill="black"/>
<path d="M182.724 457.866C179.377 459.799 174.694 457.911 172.264 453.651L169.148 448.188C166.717 443.927 162.052 442.027 158.728 443.944C155.404 445.861 151.409 451.173 149.806 455.81L143.601 473.746C141.998 478.382 140.052 483.048 134.686 485.611C130.626 487.551 128.673 485.106 128.671 480.201L128.663 442.417C128.661 437.512 132.101 431.541 136.344 429.081L168.98 410.155C173.223 407.695 177.624 409.558 178.809 414.319L186.635 445.747C187.823 450.508 186.071 455.934 182.724 457.866Z" fill="#4F64D9"/>
<path opacity="0.6" d="M182.724 457.866C179.377 459.799 174.694 457.911 172.264 453.651L169.148 448.188C166.717 443.927 162.052 442.027 158.728 443.944C155.404 445.861 151.409 451.173 149.806 455.81L143.601 473.746C141.998 478.382 140.052 483.048 134.686 485.611C130.626 487.551 128.673 485.106 128.671 480.201L128.663 442.417C128.661 437.512 132.101 431.541 136.344 429.081L168.98 410.155C173.223 407.695 177.624 409.558 178.809 414.319L186.635 445.747C187.823 450.508 186.071 455.934 182.724 457.866Z" fill="black"/>
<path d="M170.069 421.037L170.885 425.669L174.492 423.352L175.308 427.984L171.702 430.304L172.521 434.936L168.918 437.249L168.099 432.619L164.496 434.933L163.68 430.301L167.283 427.987L166.466 423.355L170.069 421.037Z" fill="#263238"/>
<path d="M171.109 421.584L171.926 426.217L175.533 423.901L176.35 428.533L172.742 430.851L173.561 435.484L169.96 437.798L169.141 433.167L165.538 435.481L164.722 430.849L168.324 428.536L167.508 423.904L171.109 421.584Z" fill="#4F64D9"/>
<path d="M142.76 437.425C142.986 438.704 142.362 440.259 141.367 440.9C140.372 441.54 139.383 441.022 139.158 439.743C138.933 438.463 139.556 436.908 140.551 436.268C141.546 435.627 142.535 436.145 142.76 437.425Z" fill="#263238"/>
<path d="M144.394 446.689C144.619 447.968 143.996 449.524 143.001 450.164C142.006 450.805 141.017 450.287 140.791 449.007C140.566 447.728 141.19 446.172 142.185 445.532C143.18 444.893 144.169 445.41 144.394 446.689Z" fill="#263238"/>
<path d="M147.183 439.741C147.408 441.021 146.785 442.576 145.79 443.217C144.795 443.857 143.805 443.339 143.58 442.06C143.355 440.78 143.978 439.225 144.973 438.584C145.968 437.944 146.958 438.462 147.183 439.741Z" fill="#263238"/>
<path d="M139.98 444.374C140.205 445.653 139.582 447.208 138.587 447.849C137.592 448.489 136.603 447.971 136.378 446.692C136.152 445.412 136.776 443.857 137.771 443.217C138.766 442.576 139.755 443.094 139.98 444.374Z" fill="#263238"/>
<path d="M142.836 437.472C143.061 438.752 142.437 440.307 141.442 440.948C140.447 441.588 139.458 441.07 139.233 439.791C139.008 438.511 139.631 436.956 140.626 436.316C141.621 435.675 142.61 436.193 142.836 437.472Z" fill="#263238"/>
<path d="M144.469 446.737C144.694 448.016 144.071 449.572 143.076 450.212C142.081 450.852 141.092 450.334 140.866 449.055C140.641 447.776 141.265 446.22 142.26 445.58C143.255 444.939 144.244 445.457 144.469 446.737Z" fill="#263238"/>
<path d="M147.257 439.788C147.482 441.067 146.858 442.623 145.863 443.263C144.869 443.903 143.879 443.385 143.654 442.106C143.429 440.827 144.052 439.271 145.047 438.631C146.042 437.99 147.032 438.51 147.257 439.788Z" fill="#263238"/>
<path d="M140.053 444.42C140.278 445.699 139.655 447.255 138.66 447.895C137.665 448.536 136.675 448.018 136.45 446.738C136.225 445.459 136.848 443.903 137.843 443.263C138.838 442.624 139.828 443.142 140.053 444.42Z" fill="#263238"/>
<path d="M142.91 437.519C143.135 438.798 142.511 440.354 141.516 440.994C140.521 441.635 139.532 441.117 139.307 439.837C139.082 438.558 139.705 437.002 140.7 436.362C141.695 435.723 142.684 436.241 142.91 437.519Z" fill="#263238"/>
<path d="M144.543 446.783C144.768 448.063 144.145 449.618 143.15 450.258C142.155 450.899 141.166 450.381 140.941 449.101C140.715 447.822 141.339 446.267 142.334 445.626C143.329 444.987 144.318 445.505 144.543 446.783Z" fill="#263238"/>
<path d="M147.332 439.836C147.557 441.115 146.934 442.671 145.939 443.311C144.944 443.951 143.955 443.433 143.729 442.154C143.504 440.874 144.128 439.319 145.123 438.679C146.118 438.038 147.107 438.556 147.332 439.836Z" fill="#263238"/>
<path d="M140.129 444.468C140.355 445.747 139.731 447.303 138.736 447.943C137.741 448.583 136.752 448.066 136.527 446.786C136.302 445.507 136.925 443.951 137.92 443.311C138.915 442.67 139.903 443.188 140.129 444.468Z" fill="#263238"/>
<path d="M142.984 437.567C143.209 438.846 142.585 440.402 141.59 441.042C140.595 441.683 139.606 441.165 139.381 439.885C139.156 438.606 139.779 437.05 140.774 436.41C141.769 435.769 142.758 436.287 142.984 437.567Z" fill="#263238"/>
<path d="M144.618 446.831C144.844 448.111 144.22 449.666 143.225 450.306C142.23 450.947 141.241 450.429 141.016 449.149C140.791 447.87 141.414 446.315 142.409 445.674C143.404 445.034 144.393 445.552 144.618 446.831Z" fill="#263238"/>
<path d="M147.406 439.884C147.631 441.163 147.008 442.718 146.013 443.359C145.018 443.999 144.028 443.481 143.803 442.202C143.578 440.922 144.202 439.367 145.197 438.727C146.191 438.086 147.181 438.604 147.406 439.884Z" fill="#263238"/>
<path d="M140.203 444.516C140.429 445.795 139.805 447.35 138.81 447.991C137.815 448.631 136.826 448.113 136.601 446.834C136.376 445.554 136.999 443.999 137.994 443.359C138.989 442.718 139.978 443.236 140.203 444.516Z" fill="#263238"/>
<path d="M143.059 437.615C143.284 438.894 142.66 440.45 141.665 441.09C140.671 441.73 139.681 441.212 139.456 439.933C139.231 438.654 139.854 437.098 140.849 436.458C141.844 435.817 142.834 436.335 143.059 437.615Z" fill="#263238"/>
<path d="M144.692 446.879C144.918 448.158 144.294 449.714 143.299 450.354C142.304 450.995 141.315 450.477 141.09 449.197C140.865 447.918 141.488 446.362 142.483 445.722C143.478 445.082 144.467 445.6 144.692 446.879Z" fill="#263238"/>
<path d="M147.481 439.93C147.706 441.209 147.083 442.765 146.088 443.405C145.093 444.046 144.104 443.528 143.879 442.248C143.653 440.969 144.277 439.413 145.272 438.773C146.267 438.133 147.256 438.651 147.481 439.93Z" fill="#263238"/>
<path d="M140.279 444.562C140.504 445.842 139.88 447.397 138.885 448.037C137.89 448.678 136.901 448.16 136.676 446.88C136.451 445.601 137.074 444.046 138.069 443.405C139.064 442.766 140.052 443.284 140.279 444.562Z" fill="#263238"/>
<path d="M143.134 437.661C143.359 438.941 142.736 440.496 141.741 441.136C140.746 441.777 139.757 441.259 139.531 439.979C139.306 438.7 139.93 437.145 140.925 436.504C141.92 435.865 142.909 436.383 143.134 437.661Z" fill="#263238"/>
<path d="M144.768 446.925C144.993 448.205 144.369 449.76 143.374 450.401C142.379 451.041 141.39 450.523 141.165 449.244C140.94 447.964 141.563 446.409 142.558 445.768C143.553 445.129 144.542 445.647 144.768 446.925Z" fill="#263238"/>
<path d="M147.555 439.978C147.78 441.257 147.157 442.813 146.162 443.453C145.167 444.093 144.178 443.576 143.952 442.296C143.727 441.017 144.351 439.461 145.346 438.821C146.341 438.181 147.33 438.698 147.555 439.978Z" fill="#263238"/>
<path d="M140.353 444.61C140.578 445.89 139.954 447.445 138.959 448.085C137.964 448.726 136.975 448.208 136.75 446.928C136.525 445.649 137.148 444.094 138.143 443.453C139.138 442.813 140.126 443.331 140.353 444.61Z" fill="#263238"/>
<path d="M143.208 437.709C143.433 438.989 142.81 440.544 141.815 441.184C140.82 441.825 139.83 441.307 139.605 440.027C139.38 438.748 140.004 437.193 140.999 436.552C141.993 435.912 142.983 436.43 143.208 437.709Z" fill="#263238"/>
<path d="M144.842 446.973C145.067 448.253 144.443 449.808 143.448 450.448C142.453 451.089 141.464 450.571 141.239 449.291C141.014 448.012 141.637 446.457 142.632 445.816C143.627 445.176 144.616 445.694 144.842 446.973Z" fill="#263238"/>
<path d="M147.63 440.024C147.856 441.304 147.232 442.859 146.237 443.5C145.242 444.14 144.253 443.622 144.028 442.343C143.803 441.063 144.426 439.508 145.421 438.867C146.416 438.227 147.405 438.746 147.63 440.024Z" fill="#263238"/>
<path d="M140.428 444.657C140.653 445.936 140.029 447.491 139.034 448.132C138.04 448.772 137.05 448.254 136.825 446.975C136.6 445.695 137.223 444.14 138.218 443.5C139.212 442.861 140.201 443.378 140.428 444.657Z" fill="#263238"/>
<path d="M143.283 437.757C143.508 439.036 142.885 440.592 141.89 441.232C140.895 441.873 139.906 441.355 139.681 440.075C139.455 438.796 140.079 437.24 141.074 436.6C142.069 435.96 143.058 436.477 143.283 437.757Z" fill="#263238"/>
<path d="M144.917 447.021C145.142 448.301 144.518 449.856 143.524 450.496C142.529 451.137 141.539 450.619 141.314 449.339C141.089 448.06 141.712 446.505 142.707 445.864C143.702 445.224 144.69 445.742 144.917 447.021Z" fill="#263238"/>
<path d="M147.704 440.072C147.929 441.352 147.306 442.907 146.311 443.547C145.316 444.188 144.327 443.67 144.102 442.39C143.876 441.111 144.5 439.556 145.495 438.915C146.49 438.275 147.479 438.793 147.704 440.072Z" fill="#263238"/>
<path d="M140.5 444.704C140.726 445.984 140.102 447.539 139.107 448.179C138.112 448.82 137.123 448.302 136.898 447.023C136.673 445.743 137.296 444.188 138.291 443.547C139.286 442.907 140.275 443.425 140.5 444.704Z" fill="#263238"/>
<path d="M143.357 437.803C143.582 439.083 142.959 440.638 141.964 441.279C140.969 441.919 139.98 441.401 139.754 440.122C139.529 438.842 140.153 437.287 141.148 436.646C142.143 436.006 143.132 436.524 143.357 437.803Z" fill="#263238"/>
<path d="M144.991 447.068C145.216 448.347 144.592 449.902 143.597 450.543C142.603 451.183 141.613 450.665 141.388 449.386C141.163 448.106 141.786 446.551 142.781 445.911C143.776 445.27 144.764 445.788 144.991 447.068Z" fill="#263238"/>
<path d="M147.78 440.12C148.005 441.4 147.381 442.955 146.386 443.595C145.391 444.236 144.402 443.718 144.177 442.438C143.952 441.159 144.575 439.603 145.57 438.963C146.565 438.323 147.554 438.841 147.78 440.12Z" fill="#263238"/>
<path d="M140.576 444.752C140.801 446.032 140.177 447.587 139.182 448.227C138.187 448.868 137.198 448.35 136.973 447.07C136.748 445.791 137.371 444.236 138.366 443.595C139.361 442.955 140.35 443.473 140.576 444.752Z" fill="#263238"/>
<path d="M143.432 437.851C143.658 439.131 143.034 440.686 142.039 441.327C141.044 441.967 140.055 441.449 139.83 440.17C139.605 438.89 140.228 437.335 141.223 436.694C142.218 436.054 143.207 436.572 143.432 437.851Z" fill="#263238"/>
<path d="M145.066 447.115C145.291 448.395 144.668 449.95 143.673 450.591C142.678 451.231 141.688 450.713 141.463 449.434C141.238 448.154 141.861 446.599 142.856 445.958C143.851 445.318 144.839 445.836 145.066 447.115Z" fill="#263238"/>
<path d="M147.853 440.167C148.079 441.446 147.455 443.001 146.46 443.642C145.465 444.282 144.476 443.764 144.251 442.485C144.026 441.205 144.649 439.65 145.644 439.01C146.639 438.371 147.628 438.888 147.853 440.167Z" fill="#263238"/>
<path d="M140.65 444.799C140.875 446.078 140.251 447.633 139.256 448.274C138.261 448.914 137.272 448.396 137.047 447.117C136.822 445.837 137.445 444.282 138.44 443.642C139.435 443.003 140.424 443.521 140.65 444.799Z" fill="#263238"/>
<path d="M143.506 437.898C143.732 439.177 143.108 440.733 142.113 441.373C141.118 442.013 140.129 441.495 139.904 440.216C139.678 438.937 140.302 437.381 141.297 436.741C142.292 436.102 143.281 436.62 143.506 437.898Z" fill="#263238"/>
<path d="M145.14 447.162C145.365 448.441 144.742 449.997 143.747 450.637C142.752 451.278 141.762 450.76 141.537 449.48C141.312 448.201 141.935 446.645 142.93 446.005C143.925 445.366 144.913 445.884 145.14 447.162Z" fill="#263238"/>
<path d="M147.929 440.214C148.154 441.494 147.53 443.049 146.535 443.689C145.541 444.33 144.551 443.812 144.326 442.533C144.101 441.253 144.724 439.698 145.719 439.057C146.714 438.417 147.704 438.935 147.929 440.214Z" fill="#263238"/>
<path d="M140.725 444.847C140.95 446.126 140.327 447.681 139.332 448.322C138.337 448.962 137.347 448.444 137.122 447.165C136.897 445.885 137.52 444.33 138.515 443.69C139.51 443.049 140.5 443.567 140.725 444.847Z" fill="#263238"/>
<path d="M143.582 437.946C143.807 439.225 143.183 440.78 142.188 441.421C141.193 442.061 140.204 441.543 139.979 440.264C139.754 438.984 140.377 437.429 141.372 436.789C142.367 436.148 143.356 436.666 143.582 437.946Z" fill="#263238"/>
<path d="M145.215 447.21C145.44 448.489 144.817 450.044 143.822 450.685C142.827 451.325 141.838 450.807 141.612 449.528C141.387 448.248 142.011 446.693 143.006 446.053C144.001 445.412 144.988 445.93 145.215 447.21Z" fill="#263238"/>
<path d="M148.003 440.262C148.228 441.542 147.604 443.097 146.609 443.737C145.614 444.378 144.625 443.86 144.4 442.58C144.175 441.301 144.798 439.746 145.793 439.105C146.788 438.465 147.777 438.983 148.003 440.262Z" fill="#263238"/>
<path d="M140.799 444.893C141.024 446.172 140.401 447.728 139.406 448.368C138.411 449.009 137.421 448.491 137.196 447.211C136.971 445.932 137.594 444.376 138.589 443.736C139.584 443.097 140.574 443.615 140.799 444.893Z" fill="#263238"/>
<path d="M170.069 421.037L171.109 421.584L167.508 423.904L166.466 423.355L170.069 421.037Z" fill="#263238"/>
<path d="M167.283 427.987L168.324 428.536L164.721 430.849L163.68 430.301L167.283 427.987Z" fill="#263238"/>
<path d="M171.925 426.217L171.732 425.126L174.492 423.352L175.532 423.901L171.925 426.217Z" fill="#263238"/>
<path d="M163.68 430.301L164.721 430.849L165.538 435.481L164.496 434.933L163.68 430.301Z" fill="#263238"/>
<path d="M168.918 437.249L169.96 437.798L169.141 433.167L168.293 433.712L168.918 437.249Z" fill="#263238"/>
<path d="M143.582 437.945C143.807 439.225 143.183 440.78 142.188 441.421C141.193 442.061 140.204 441.543 139.979 440.264C139.754 438.984 140.377 437.429 141.372 436.788C142.367 436.148 143.356 436.666 143.582 437.945Z" fill="#4F64D9"/>
<path d="M145.215 447.21C145.44 448.489 144.817 450.044 143.822 450.685C142.827 451.325 141.838 450.807 141.612 449.528C141.387 448.248 142.011 446.693 143.006 446.053C144.001 445.412 144.988 445.93 145.215 447.21Z" fill="#4F64D9"/>
<path d="M148.003 440.262C148.228 441.542 147.604 443.097 146.609 443.737C145.614 444.378 144.625 443.86 144.4 442.58C144.175 441.301 144.798 439.746 145.793 439.105C146.788 438.465 147.777 438.983 148.003 440.262Z" fill="#4F64D9"/>
<path d="M140.799 444.893C141.024 446.172 140.401 447.728 139.406 448.368C138.411 449.009 137.421 448.491 137.196 447.211C136.971 445.932 137.594 444.376 138.589 443.736C139.584 443.097 140.574 443.615 140.799 444.893Z" fill="#4F64D9"/>
<path d="M178.2 44.603L163.076 53.3367C163.15 52.6611 163.202 51.9911 163.202 51.3338V46.9522C163.202 39.1545 157.728 35.9932 150.976 39.892C148.241 41.4713 145.725 43.9738 143.689 46.9001C142.583 37.0939 134.89 33.4413 125.547 38.8364C115.446 44.6692 107.255 58.857 107.255 70.524V77.0802C107.255 80.1022 107.814 82.647 108.803 84.6752L96.2405 91.9296C92.4943 94.093 89.4587 99.3529 89.4587 103.678C89.4587 108.004 92.4957 109.757 96.2405 107.594L178.197 60.2687C181.943 58.1054 184.979 52.8455 184.979 48.5201C184.982 44.1934 181.945 42.4396 178.2 44.603Z" fill="#F0F0F0"/>
<path d="M492.515 437.892L489.761 436.31L491.758 435.409C491.758 435.409 493.329 435.823 493.365 435.896C493.402 435.969 493.256 436.98 493.256 436.98L492.515 437.892Z" fill="#E0E0E0"/>
<path d="M492.515 437.892L489.761 436.31L491.758 435.409C491.758 435.409 493.329 435.823 493.365 435.896C493.402 435.969 493.256 436.98 493.256 436.98L492.515 437.892Z" fill="#4F64D9"/>
<path opacity="0.1" d="M492.515 437.892L489.761 436.31L491.758 435.409C491.758 435.409 493.329 435.823 493.365 435.896C493.402 435.969 493.256 436.98 493.256 436.98L492.515 437.892Z" fill="white"/>
<path d="M387.795 490.66C390.016 491.942 393.616 491.942 395.835 490.66L486.1 438.534L350.977 360.499L347.821 358.672L257.558 410.798C255.346 412.084 255.346 414.172 257.558 415.442L387.795 490.66Z" fill="#4F64D9"/>
<path opacity="0.8" d="M387.795 490.66C390.016 491.942 393.616 491.942 395.835 490.66L486.1 438.534L350.977 360.499L347.821 358.672L257.558 410.798C255.346 412.084 255.346 414.172 257.558 415.442L387.795 490.66Z" fill="white"/>
<path d="M421.688 392.192L453.165 410.313L473.543 398.546L497.248 412.243C497.248 412.243 497.248 427.259 497.248 429.33C497.248 431.402 494.925 434.352 494.081 433.866C494.081 433.866 492.224 434.246 489.549 435.475C486.874 436.705 483.008 440.316 483.008 440.316L410.679 398.55L421.688 392.192Z" fill="#E0E0E0"/>
<path d="M421.688 392.192L453.165 410.313L473.543 398.546L497.248 412.243C497.248 412.243 497.248 427.259 497.248 429.33C497.248 431.402 494.925 434.352 494.081 433.866C494.081 433.866 492.224 434.246 489.549 435.475C486.874 436.705 483.008 440.316 483.008 440.316L410.679 398.55L421.688 392.192Z" fill="#4F64D9"/>
<path opacity="0.1" d="M421.688 392.192L453.165 410.313L473.543 398.546L497.248 412.243C497.248 412.243 497.248 427.259 497.248 429.33C497.248 431.402 494.925 434.352 494.081 433.866C494.081 433.866 492.224 434.246 489.549 435.475C486.874 436.705 483.008 440.316 483.008 440.316L410.679 398.55L421.688 392.192Z" fill="white"/>
<path d="M395.836 490.656L401.284 487.499L483.004 440.31C483.035 439.288 483.453 438.283 484.119 437.385C485.047 436.085 486.439 434.971 487.693 434.244C488.653 433.686 490.091 433.036 491.546 433.036C492.537 433.036 493.403 433.346 494.084 433.872C494.61 433.16 495.585 430.421 495.585 427.109H498.68C498.68 431.381 497.271 435.668 495.539 436.659L493.975 437.572C493.093 438.083 492.396 438.114 492.396 437.634V436.798C492.396 435.869 490.988 435.916 489.24 436.922C487.506 437.929 486.099 439.491 486.099 440.42V441.256C486.099 441.736 484.891 442.803 483.422 443.654L404.394 489.296L395.836 494.234C395.836 494.234 395.821 494.234 395.821 494.249C394.706 494.869 393.268 495.194 391.813 495.194V491.619C393.268 491.614 394.723 491.306 395.836 490.656Z" fill="#4F64D9"/>
<path opacity="0.6" d="M395.836 490.656L401.284 487.499L483.004 440.31C483.035 439.288 483.453 438.283 484.119 437.385C485.047 436.085 486.439 434.971 487.693 434.244C488.653 433.686 490.091 433.036 491.546 433.036C492.537 433.036 493.403 433.346 494.084 433.872C494.61 433.16 495.585 430.421 495.585 427.109H498.68C498.68 431.381 497.271 435.668 495.539 436.659L493.975 437.572C493.093 438.083 492.396 438.114 492.396 437.634V436.798C492.396 435.869 490.988 435.916 489.24 436.922C487.506 437.929 486.099 439.491 486.099 440.42V441.256C486.099 441.736 484.891 442.803 483.422 443.654L404.394 489.296L395.836 494.234C395.836 494.234 395.821 494.234 395.821 494.249C394.706 494.869 393.268 495.194 391.813 495.194V491.619C393.268 491.614 394.723 491.306 395.836 490.656Z" fill="white"/>
<path d="M255.903 413.069V416.706C255.903 417.542 256.429 418.363 257.497 418.996L257.559 419.027L379.249 489.292L387.792 494.23V494.245C387.792 494.245 387.807 494.229 387.807 494.245C388.922 494.864 390.36 495.189 391.815 495.189V491.614C390.36 491.614 388.906 491.305 387.792 490.654L382.359 487.513H382.344L257.558 415.436C256.376 414.751 255.907 413.947 255.903 413.069Z" fill="#4F64D9"/>
<path opacity="0.1" d="M255.903 413.069V416.706C255.903 417.542 256.429 418.363 257.497 418.996L257.559 419.027L379.249 489.292L387.792 494.23V494.245C387.792 494.245 387.807 494.229 387.807 494.245C388.922 494.864 390.36 495.189 391.815 495.189V491.614C390.36 491.614 388.906 491.305 387.792 490.654L382.359 487.513H382.344L257.558 415.436C256.376 414.751 255.907 413.947 255.903 413.069Z" fill="white"/>
<path d="M391.815 467.518V488.38C392.79 488.38 393.764 488.179 394.492 487.745L404.395 482.035L479.818 438.483L479.833 416.692L391.815 467.518Z" fill="white"/>
<path d="M259.817 393.908V409.974C259.817 411.677 261.025 413.766 262.494 414.617L379.249 482.035L389.136 487.745C389.864 488.179 390.839 488.38 391.813 488.38V469.73L259.817 393.908Z" fill="#F0F0F0"/>
<path d="M479.818 438.483C479.849 437.461 480.282 436.458 480.948 435.56C481.877 434.259 483.269 433.146 484.522 432.418C485.482 431.861 486.92 431.21 488.376 431.21C489.366 431.21 490.233 431.52 490.913 432.046V410.293L479.833 416.69L479.818 438.483Z" fill="#455A64"/>
<path d="M484.244 432.595C483.066 433.322 481.809 434.353 480.948 435.558C480.282 436.456 479.849 437.461 479.818 438.482L479.832 417.711H484.242V432.595H484.244Z" fill="#F5F5F5"/>
<path d="M350.976 335.034L486.099 413.069C486.099 413.069 486.099 413.874 486.099 414.879C486.099 415.885 487.508 416.257 489.24 415.25C490.988 414.244 492.397 412.991 492.397 411.257L492.567 409.539L354.891 330.049L354.334 329.724C354.195 329.987 354.102 330.281 354.102 330.56V331.396C354.103 332.404 352.71 334.012 350.976 335.034Z" fill="#4F64D9"/>
<path opacity="0.6" d="M350.976 335.034L486.099 413.069C486.099 413.069 486.099 413.874 486.099 414.879C486.099 415.885 487.508 416.257 489.24 415.25C490.988 414.244 492.397 412.991 492.397 411.257L492.567 409.539L354.891 330.049L354.334 329.724C354.195 329.987 354.102 330.281 354.102 330.56V331.396C354.103 332.404 352.71 334.012 350.976 335.034Z" fill="white"/>
<path d="M395.833 465.197L484.098 414.226C485.219 413.638 486.244 413.166 486.676 413.393L486.099 413.07L350.976 335.036C350.976 335.036 350.182 334.581 349.397 334.125C348.526 333.62 346.62 333.903 345.14 334.757L257.558 385.335C255.346 386.62 255.346 388.709 257.558 389.978L387.795 465.197C390.014 466.477 393.614 466.479 395.833 465.197Z" fill="#4F64D9"/>
<path opacity="0.8" d="M395.833 465.197L484.098 414.226C485.219 413.638 486.244 413.166 486.676 413.393L486.099 413.07L350.976 335.036C350.976 335.036 350.182 334.581 349.397 334.125C348.526 333.62 346.62 333.903 345.14 334.757L257.558 385.335C255.346 386.62 255.346 388.709 257.558 389.978L387.795 465.197C390.014 466.477 393.614 466.479 395.833 465.197Z" fill="white"/>
<path d="M354.336 329.725L354.893 330.05L492.569 409.54C492.569 409.54 492.662 409.323 492.863 409.169C492.987 409.091 493.142 409.014 493.327 408.905L494.318 408.333C494.69 408.116 495.108 407.868 495.541 407.62C496.114 407.295 496.64 407.357 497.105 407.76C497.166 407.791 497.213 407.837 497.259 407.899C497.414 408.054 497.553 408.255 497.677 408.472C497.817 408.704 497.94 408.967 498.033 409.246C498.142 409.525 498.235 409.834 498.312 410.144C498.389 410.485 498.451 410.825 498.513 411.197C498.56 411.398 498.575 411.615 498.591 411.832C498.606 412.002 498.622 412.157 498.637 412.343C498.668 412.73 498.683 413.132 498.683 413.55V409.681C498.683 407.546 496.872 404.774 494.66 403.491L364.412 328.273C362.184 326.987 358.98 326.772 357.248 327.762L355.607 328.722L355.545 328.753C355.436 328.83 355.158 328.985 354.848 329.155C354.848 329.155 354.833 329.155 354.833 329.171C354.644 329.278 354.46 329.479 354.336 329.725Z" fill="#4F64D9"/>
<path opacity="0.8" d="M354.336 329.725L354.893 330.05L492.569 409.54C492.569 409.54 492.662 409.323 492.863 409.169C492.987 409.091 493.142 409.014 493.327 408.905L494.318 408.333C494.69 408.116 495.108 407.868 495.541 407.62C496.114 407.295 496.64 407.357 497.105 407.76C497.166 407.791 497.213 407.837 497.259 407.899C497.414 408.054 497.553 408.255 497.677 408.472C497.817 408.704 497.94 408.967 498.033 409.246C498.142 409.525 498.235 409.834 498.312 410.144C498.389 410.485 498.451 410.825 498.513 411.197C498.56 411.398 498.575 411.615 498.591 411.832C498.606 412.002 498.622 412.157 498.637 412.343C498.668 412.73 498.683 413.132 498.683 413.55V409.681C498.683 407.546 496.872 404.774 494.66 403.491L364.412 328.273C362.184 326.987 358.98 326.772 357.248 327.762L355.607 328.722L355.545 328.753C355.436 328.83 355.158 328.985 354.848 329.155C354.848 329.155 354.833 329.155 354.833 329.171C354.644 329.278 354.46 329.479 354.336 329.725Z" fill="white"/>
<path d="M395.806 465.211C395.822 465.211 395.822 465.195 395.822 465.195L401.285 462.038L464.064 425.807L484.104 414.23C485.528 413.394 486.688 413.1 486.765 413.533C486.781 413.549 486.781 413.564 486.781 413.58V414.493C486.781 415.5 488.19 415.5 489.922 414.493C491.625 413.518 492.366 412.312 492.397 411.336V410.345C492.397 409.834 492.599 409.308 492.862 409.169C492.986 409.091 493.156 408.998 493.326 408.905C493.605 408.751 493.945 408.549 494.317 408.333C494.688 408.116 495.106 407.868 495.54 407.62C496.113 407.295 496.639 407.357 497.103 407.76C497.165 407.791 497.212 407.837 497.258 407.899C497.366 408.007 497.459 408.131 497.537 408.271C497.599 408.333 497.63 408.394 497.676 408.472C497.815 408.704 497.939 408.967 498.032 409.246C498.14 409.525 498.233 409.834 498.311 410.144C498.388 410.485 498.45 410.825 498.512 411.197C498.558 411.398 498.574 411.615 498.589 411.832C498.605 412.002 498.62 412.157 498.636 412.343C498.667 412.73 498.682 413.132 498.682 413.55V427.108H495.588V413.55C495.588 413.225 495.572 412.9 495.557 412.59L495.479 411.816C495.479 411.785 495.479 411.77 495.464 411.739C495.185 414.199 492.834 416.398 490.79 417.557C489.877 418.099 488.47 418.734 487.014 418.734C485.931 418.734 484.957 418.347 484.245 417.712L483.966 417.867C483.78 417.975 483.61 418.084 483.424 418.192L404.396 463.834L395.839 468.772C395.839 468.772 395.823 468.772 395.823 468.787C395.808 468.803 395.792 468.803 395.761 468.818C394.662 469.422 393.239 469.732 391.815 469.732V466.159C393.412 466.158 394.683 465.803 395.806 465.211Z" fill="#4F64D9"/>
<path opacity="0.6" d="M395.806 465.211C395.822 465.211 395.822 465.195 395.822 465.195L401.285 462.038L464.064 425.807L484.104 414.23C485.528 413.394 486.688 413.1 486.765 413.533C486.781 413.549 486.781 413.564 486.781 413.58V414.493C486.781 415.5 488.19 415.5 489.922 414.493C491.625 413.518 492.366 412.312 492.397 411.336V410.345C492.397 409.834 492.599 409.308 492.862 409.169C492.986 409.091 493.156 408.998 493.326 408.905C493.605 408.751 493.945 408.549 494.317 408.333C494.688 408.116 495.106 407.868 495.54 407.62C496.113 407.295 496.639 407.357 497.103 407.76C497.165 407.791 497.212 407.837 497.258 407.899C497.366 408.007 497.459 408.131 497.537 408.271C497.599 408.333 497.63 408.394 497.676 408.472C497.815 408.704 497.939 408.967 498.032 409.246C498.14 409.525 498.233 409.834 498.311 410.144C498.388 410.485 498.45 410.825 498.512 411.197C498.558 411.398 498.574 411.615 498.589 411.832C498.605 412.002 498.62 412.157 498.636 412.343C498.667 412.73 498.682 413.132 498.682 413.55V427.108H495.588V413.55C495.588 413.225 495.572 412.9 495.557 412.59L495.479 411.816C495.479 411.785 495.479 411.77 495.464 411.739C495.185 414.199 492.834 416.398 490.79 417.557C489.877 418.099 488.47 418.734 487.014 418.734C485.931 418.734 484.957 418.347 484.245 417.712L483.966 417.867C483.78 417.975 483.61 418.084 483.424 418.192L404.396 463.834L395.839 468.772C395.839 468.772 395.823 468.772 395.823 468.787C395.808 468.803 395.792 468.803 395.761 468.818C394.662 469.422 393.239 469.732 391.815 469.732V466.159C393.412 466.158 394.683 465.803 395.806 465.211Z" fill="white"/>
<path d="M255.903 387.612V391.249C255.903 392.085 256.429 392.906 257.497 393.539L257.559 393.57L379.249 463.835L387.792 468.773V468.788C387.792 468.788 387.807 468.773 387.807 468.788C388.922 469.408 390.36 469.733 391.815 469.733V466.158C390.36 466.158 388.906 465.848 387.792 465.198L382.359 462.056H382.344L257.558 389.98C256.376 389.293 255.907 388.491 255.903 387.612Z" fill="#4F64D9"/>
<path opacity="0.1" d="M255.903 387.612V391.249C255.903 392.085 256.429 392.906 257.497 393.539L257.559 393.57L379.249 463.835L387.792 468.773V468.788C387.792 468.788 387.807 468.773 387.807 468.788C388.922 469.408 390.36 469.733 391.815 469.733V466.158C390.36 466.158 388.906 465.848 387.792 465.198L382.359 462.056H382.344L257.558 389.98C256.376 389.293 255.907 388.491 255.903 387.612Z" fill="white"/>
<path d="M345.141 334.756C346.621 333.901 348.527 333.618 349.398 334.124C350.183 334.58 350.97 335.034 350.97 335.034C352.711 334.012 354.104 332.404 354.104 331.397V330.561C354.104 330.282 354.197 329.988 354.336 329.725C354.46 329.477 354.646 329.276 354.831 329.168C354.831 329.152 354.847 329.152 354.847 329.152C355.157 328.982 355.435 328.827 355.544 328.75L355.605 328.719L357.246 327.759C358.979 326.768 362.183 326.985 364.411 328.27L494.659 403.488C494.705 403.515 494.749 403.551 494.795 403.581L402.774 456.718C401.293 457.572 398.897 457.568 397.419 456.706L266.32 380.275L345.141 334.756Z" fill="#263238"/>
<path d="M410.141 449.047L406.653 447.042C406.653 447.042 408.654 446.406 409.578 446.837C410.502 447.269 410.141 449.047 410.141 449.047Z" fill="#4F64D9"/>
<path opacity="0.7" d="M410.141 449.047L406.653 447.042C406.653 447.042 408.654 446.406 409.578 446.837C410.502 447.269 410.141 449.047 410.141 449.047Z" fill="black"/>
<path d="M412.534 446.852C412.534 446.852 409.711 443.742 406.324 446.852C402.937 449.963 402.761 453.045 401.359 452.995C399.956 452.944 399.977 428.152 399.977 428.152L413.331 440.573L412.534 446.852Z" fill="#4F64D9"/>
<path opacity="0.7" d="M412.534 446.852C412.534 446.852 409.711 443.742 406.324 446.852C402.937 449.963 402.761 453.045 401.359 452.995C399.956 452.944 399.977 428.152 399.977 428.152L413.331 440.573L412.534 446.852Z" fill="black"/>
<path d="M272.609 356.69L272.389 356.564L274.535 355.324L366.677 302.118L500.944 389.027C503.164 390.309 503.557 392.157 501.822 393.155L498.681 394.961L412.55 444.718L411.939 444.274L272.609 356.69Z" fill="#4F64D9"/>
<path opacity="0.5" d="M272.609 356.69L272.389 356.564L274.535 355.324L366.677 302.118L500.944 389.027C503.164 390.309 503.557 392.157 501.822 393.155L498.681 394.961L412.55 444.718L411.939 444.274L272.609 356.69Z" fill="black"/>
<path d="M401.057 416.414L407.726 415.039V441.754C403.702 443.461 401.144 445.077 400.722 448.444L401.057 416.414Z" fill="#455A64"/>
<path d="M410.677 442.107L496 392.837C497.48 391.983 498.681 389.904 498.681 388.194V361.859L412.533 412.038C412.533 412.038 411.506 415.764 408.451 416.941C405.396 418.116 407.725 419.299 407.725 419.299V441.756C410.365 441.443 410.677 442.107 410.677 442.107Z" fill="#F0F0F0"/>
<path d="M402.81 415.501C403.692 414.99 404.387 414.959 404.387 415.439V416.275C404.387 417.204 405.796 417.158 407.544 416.151C409.276 415.145 410.705 413.584 410.705 412.656V411.817C410.705 411.338 411.892 410.271 413.362 409.419L274.538 329.864C273.688 330.357 272.389 331.113 272.389 331.113C272.03 331.465 271.861 332.06 271.861 332.263V333.099C271.861 334.028 270.452 335.59 268.72 336.597C266.971 337.603 265.563 337.649 265.563 336.72V335.884C265.563 335.404 264.867 335.435 263.986 335.946L402.81 415.501Z" fill="#4F64D9"/>
<path opacity="0.6" d="M402.81 415.501C403.692 414.99 404.387 414.959 404.387 415.439V416.275C404.387 417.204 405.796 417.158 407.544 416.151C409.276 415.145 410.705 413.584 410.705 412.656V411.817C410.705 411.338 411.892 410.271 413.362 409.419L274.538 329.864C273.688 330.357 272.389 331.113 272.389 331.113C272.03 331.465 271.861 332.06 271.861 332.263V333.099C271.861 334.028 270.452 335.59 268.72 336.597C266.971 337.603 265.563 337.649 265.563 336.72V335.884C265.563 335.404 264.867 335.435 263.986 335.946L402.81 415.501Z" fill="black"/>
<path d="M272.609 331.24L272.389 331.113L274.535 329.873L366.677 276.667L500.944 354.213C503.164 355.495 503.557 357.343 501.822 358.341L498.681 360.147L412.533 412.037L272.609 331.24Z" fill="#4F64D9"/>
<path opacity="0.5" d="M272.609 331.24L272.389 331.113L274.535 329.873L366.677 276.667L500.944 354.213C503.164 355.495 503.557 357.343 501.822 358.341L498.681 360.147L412.533 412.037L272.609 331.24Z" fill="black"/>
<path d="M265.537 335.069L404.251 415.169L399.394 418.968L261.129 339.127C261.729 337.706 262.349 336.957 262.98 336.546L265.537 335.069Z" fill="#4F64D9"/>
<path opacity="0.5" d="M265.537 335.069L404.251 415.169L399.394 418.968L261.129 339.127C261.729 337.706 262.349 336.957 262.98 336.546L265.537 335.069Z" fill="black"/>
<path d="M261.672 375.001C261.586 374.952 261.503 374.891 261.421 374.821C261.359 374.79 261.313 374.743 261.266 374.681C261.158 374.573 261.065 374.449 260.988 374.31C260.926 374.248 260.895 374.186 260.848 374.109C260.709 373.876 260.585 373.613 260.492 373.334C260.384 373.056 260.291 372.746 260.214 372.436C260.136 372.096 260.074 371.755 260.012 371.384C259.966 371.182 259.95 370.966 259.935 370.749C259.919 370.578 259.904 370.424 259.888 370.238C259.858 369.851 259.842 369.448 259.842 369.03V346.11C259.842 343.548 260.349 340.982 261.127 339.123L399.392 418.968L399.976 454.876L261.717 375.025L261.672 375.001Z" fill="#4F64D9"/>
<path opacity="0.7" d="M261.672 375.001C261.586 374.952 261.503 374.891 261.421 374.821C261.359 374.79 261.313 374.743 261.266 374.681C261.158 374.573 261.065 374.449 260.988 374.31C260.926 374.248 260.895 374.186 260.848 374.109C260.709 373.876 260.585 373.613 260.492 373.334C260.384 373.056 260.291 372.746 260.214 372.436C260.136 372.096 260.074 371.755 260.012 371.384C259.966 371.182 259.95 370.966 259.935 370.749C259.919 370.578 259.904 370.424 259.888 370.238C259.858 369.851 259.842 369.448 259.842 369.03V346.11C259.842 343.548 260.349 340.982 261.127 339.123L399.392 418.968L399.976 454.876L261.717 375.025L261.672 375.001Z" fill="black"/>
<path opacity="0.79" d="M399.394 418.969C399.394 418.969 290.504 367.996 280.593 363.326C274.054 360.244 270.84 366.716 272.388 373.419C273.741 379.274 279.52 385.308 279.52 385.308L261.717 375.026L261.67 375.001C261.584 374.952 261.501 374.891 261.42 374.821C261.358 374.79 261.311 374.743 261.265 374.681C261.157 374.573 261.064 374.449 260.986 374.31C260.924 374.248 260.893 374.186 260.847 374.109C260.708 373.876 260.584 373.613 260.491 373.334C260.383 373.056 260.29 372.746 260.212 372.436C260.135 372.096 260.073 371.755 260.011 371.384C259.965 371.182 259.949 370.966 259.934 370.749C259.918 370.578 259.903 370.424 259.887 370.238C259.856 369.851 259.841 369.448 259.841 369.03V346.11C259.841 343.548 260.347 340.982 261.126 339.123L399.394 418.969Z" fill="#263238"/>
<path d="M398.113 425.963H401.207C401.207 422.651 402.183 419.912 402.709 419.2C403.39 419.726 404.257 420.036 405.246 420.036C406.702 420.036 408.14 419.386 409.1 418.828C410.353 418.101 411.745 416.987 412.674 415.687C412.736 415.594 412.813 415.501 412.86 415.408C413.417 414.587 413.758 413.674 413.789 412.762L495.509 365.573L498.278 363.963L501.822 361.919C502.549 361.501 502.906 360.928 502.906 360.325V356.703C502.906 357.415 502.488 357.942 501.822 358.343L501.776 358.374L492.397 363.776L413.369 409.418C411.899 410.269 410.693 411.338 410.693 411.816V412.652C410.693 413.055 410.429 413.581 409.965 414.123C409.408 414.835 408.525 415.578 407.552 416.151C405.802 417.158 404.395 417.204 404.395 416.275V415.439C404.395 414.959 403.698 414.99 402.816 415.501L401.252 416.414C399.521 417.404 398.113 421.691 398.113 425.963Z" fill="#4F64D9"/>
<path d="M401.209 425.963V448.883C401.209 449.208 401.224 449.534 401.24 449.843L401.317 450.617C401.317 450.648 401.317 450.664 401.333 450.695C401.611 448.234 403.963 446.036 406.006 444.876C406.92 444.334 408.327 443.699 409.782 443.699C410.866 443.699 411.84 444.086 412.552 444.721L412.83 444.566C413.016 444.458 413.187 444.35 413.372 444.241L492.4 398.599C492.4 398.599 494.473 397.407 496.935 395.984C497.353 395.737 497.801 395.489 498.235 395.226C499.566 394.452 500.912 393.677 502.057 393.013C502.583 392.626 502.909 392.146 502.909 391.527V392.518V395.148C502.909 395.659 502.645 396.155 502.119 396.542C502.119 396.557 502.104 396.557 502.088 396.573C501.639 396.836 501.159 397.099 500.679 397.393C500.385 397.564 500.091 397.734 499.797 397.904C499.271 398.198 498.76 398.508 498.28 398.787C497.939 398.988 497.63 399.174 497.336 399.329C497.088 399.468 496.871 399.607 496.67 399.716C495.958 400.134 495.509 400.397 495.509 400.397L432.73 436.628L412.69 448.205C411.266 449.041 410.106 449.335 410.029 448.902C410.016 448.841 410.013 448.769 410.013 448.754V447.943C410.013 446.937 408.604 446.937 406.872 447.943C405.169 448.918 404.426 450.125 404.397 451.1V452.091C404.397 452.602 404.195 453.128 403.932 453.268C403.808 453.345 403.638 453.438 403.468 453.531C403.189 453.686 402.849 453.887 402.477 454.104C402.105 454.321 401.687 454.568 401.254 454.816C400.681 455.141 400.155 455.079 399.691 454.677C399.629 454.646 399.582 454.599 399.536 454.537C399.427 454.429 399.335 454.305 399.257 454.166V454.15C399.195 454.088 399.164 454.042 399.118 453.964C398.978 453.732 398.855 453.469 398.762 453.19C398.653 452.912 398.56 452.602 398.483 452.292C398.406 451.952 398.344 451.611 398.282 451.239C398.235 451.038 398.22 450.821 398.204 450.605C398.189 450.434 398.173 450.28 398.158 450.094C398.127 449.707 398.112 449.304 398.112 448.886V425.966H401.209V425.963Z" fill="#4F64D9"/>
<g opacity="0.6">
<path d="M398.113 425.963H401.207C401.207 422.651 402.183 419.912 402.709 419.2C403.39 419.726 404.257 420.036 405.246 420.036C406.702 420.036 408.14 419.386 409.1 418.828C410.353 418.101 411.745 416.987 412.674 415.687C412.736 415.594 412.813 415.501 412.86 415.408C413.417 414.587 413.758 413.674 413.789 412.762L495.509 365.573L498.278 363.963L501.822 361.919C502.549 361.501 502.906 360.928 502.906 360.325V356.703C502.906 357.415 502.488 357.942 501.822 358.343L501.776 358.374L492.397 363.776L413.369 409.418C411.899 410.269 410.693 411.338 410.693 411.816V412.652C410.693 413.055 410.429 413.581 409.965 414.123C409.408 414.835 408.525 415.578 407.552 416.151C405.802 417.158 404.395 417.204 404.395 416.275V415.439C404.395 414.959 403.698 414.99 402.816 415.501L401.252 416.414C399.521 417.404 398.113 421.691 398.113 425.963Z" fill="black"/>
<path d="M401.209 425.963V448.883C401.209 449.208 401.224 449.534 401.24 449.843L401.317 450.617C401.317 450.648 401.317 450.664 401.333 450.695C401.611 448.234 403.963 446.036 406.006 444.876C406.92 444.334 408.327 443.699 409.782 443.699C410.866 443.699 411.84 444.086 412.552 444.721L412.83 444.566C413.016 444.458 413.187 444.35 413.372 444.241L492.4 398.599C492.4 398.599 494.473 397.407 496.935 395.984C497.353 395.737 497.801 395.489 498.235 395.226C499.566 394.452 500.912 393.677 502.057 393.013C502.583 392.626 502.909 392.146 502.909 391.527V392.518V395.148C502.909 395.659 502.645 396.155 502.119 396.542C502.119 396.557 502.104 396.557 502.088 396.573C501.639 396.836 501.159 397.099 500.679 397.393C500.385 397.564 500.091 397.734 499.797 397.904C499.271 398.198 498.76 398.508 498.28 398.787C497.939 398.988 497.63 399.174 497.336 399.329C497.088 399.468 496.871 399.607 496.67 399.716C495.958 400.134 495.509 400.397 495.509 400.397L432.73 436.628L412.69 448.205C411.266 449.041 410.106 449.335 410.029 448.902C410.016 448.841 410.013 448.769 410.013 448.754V447.943C410.013 446.937 408.604 446.937 406.872 447.943C405.169 448.918 404.426 450.125 404.397 451.1V452.091C404.397 452.602 404.195 453.128 403.932 453.268C403.808 453.345 403.638 453.438 403.468 453.531C403.189 453.686 402.849 453.887 402.477 454.104C402.105 454.321 401.687 454.568 401.254 454.816C400.681 455.141 400.155 455.079 399.691 454.677C399.629 454.646 399.582 454.599 399.536 454.537C399.427 454.429 399.335 454.305 399.257 454.166V454.15C399.195 454.088 399.164 454.042 399.118 453.964C398.978 453.732 398.855 453.469 398.762 453.19C398.653 452.912 398.56 452.602 398.483 452.292C398.406 451.952 398.344 451.611 398.282 451.239C398.235 451.038 398.22 450.821 398.204 450.605C398.189 450.434 398.173 450.28 398.158 450.094C398.127 449.707 398.112 449.304 398.112 448.886V425.966H401.209V425.963Z" fill="black"/>
</g>
<path d="M261.133 339.12L392.542 415.004L491.873 357.646C493.359 356.795 493.359 355.403 491.873 354.551L361.842 279.457L274.55 329.866H274.534C273.683 330.361 272.383 331.12 272.383 331.12C272.027 331.461 271.856 332.064 271.856 332.266V333.102C271.856 334.031 270.448 335.593 268.715 336.599C268.622 336.661 268.53 336.692 268.437 336.739L265.543 335.067L264.166 335.856C264.104 335.887 264.057 335.903 263.98 335.949L263.995 335.965L262.974 336.553C262.356 336.954 261.721 337.711 261.133 339.12Z" fill="#263238"/>
<path d="M484.476 358.22L480.522 356.109L484.123 355.248C484.856 356.082 484.903 357.092 484.476 358.22Z" fill="#E0E0E0"/>
<path opacity="0.5" d="M484.476 358.22L480.522 356.109L484.123 355.248C484.856 356.082 484.903 357.092 484.476 358.22Z" fill="#E0E0E0"/>
<path d="M379.736 410.977C381.957 412.26 385.557 412.26 387.778 410.977L478.043 358.851L342.92 273.42L339.764 271.593L249.501 331.116C247.289 332.401 247.289 334.49 249.501 335.759L379.736 410.977Z" fill="#4F64D9"/>
<path d="M413.63 305.113L481.823 351.338L445.107 323.234L465.484 311.467L489.189 325.163C489.189 325.163 489.189 347.575 489.189 349.647C489.189 351.719 486.867 354.669 486.022 354.184C486.022 354.184 484.166 354.564 481.491 355.792C478.814 357.023 474.948 360.633 474.948 360.633L402.619 311.471L413.63 305.113Z" fill="#4F64D9"/>
<path opacity="0.2" d="M413.63 305.113L481.823 351.338L445.107 323.234L465.484 311.467L489.189 325.163C489.189 325.163 489.189 347.575 489.189 349.647C489.189 351.719 486.867 354.669 486.022 354.184C486.022 354.184 484.166 354.564 481.491 355.792C478.814 357.023 474.948 360.633 474.948 360.633L402.619 311.471L413.63 305.113Z" fill="black"/>
<path d="M383.757 380.438V408.697C384.732 408.697 385.706 408.496 386.433 408.062L396.337 402.352L471.759 358.8L471.775 329.612L383.757 380.438Z" fill="white"/>
<path d="M251.759 306.829V330.291C251.759 331.994 252.967 334.083 254.436 334.934L371.19 402.352L381.078 408.062C381.806 408.496 382.781 408.697 383.755 408.697V382.651L251.759 306.829Z" fill="#F0F0F0"/>
<path d="M471.76 358.8C471.79 357.778 472.224 356.775 472.89 355.877C473.818 354.576 475.21 353.463 476.464 352.735C477.424 352.178 478.862 351.528 480.317 351.528C481.308 351.528 482.174 351.601 482.855 352.127V323.215L471.775 329.612L471.76 358.8Z" fill="#455A64"/>
<path d="M476.185 352.913C475.008 353.639 473.751 354.669 472.89 355.875C472.224 356.774 471.79 357.777 471.76 358.799L471.774 330.633H476.184L476.185 352.913Z" fill="#F5F5F5"/>
<path d="M342.92 247.955L478.043 325.99C478.043 325.99 478.043 326.795 478.043 327.8C478.043 328.806 479.452 329.178 481.184 328.171C482.933 327.165 484.341 325.912 484.341 324.178L484.511 322.459L346.835 242.969L346.278 242.644C346.139 242.908 346.046 243.202 346.046 243.48V244.317C346.046 245.324 344.653 246.933 342.92 247.955Z" fill="#4F64D9"/>
<path opacity="0.2" d="M342.92 247.955L478.043 325.99C478.043 325.99 478.043 326.795 478.043 327.8C478.043 328.806 479.452 329.178 481.184 328.171C482.933 327.165 484.341 325.912 484.341 324.178L484.511 322.459L346.835 242.969L346.278 242.644C346.139 242.908 346.046 243.202 346.046 243.48V244.317C346.046 245.324 344.653 246.933 342.92 247.955Z" fill="black"/>
<path d="M387.778 378.116L476.042 327.145C477.163 326.557 478.188 326.085 478.62 326.312L478.043 325.99L342.92 247.955C342.92 247.955 342.126 247.5 341.341 247.044C340.47 246.539 338.564 246.822 337.084 247.676L249.502 298.256C247.29 299.541 247.29 301.63 249.502 302.899L379.739 378.117C381.957 379.398 385.557 379.399 387.778 378.116Z" fill="#4F64D9"/>
<path d="M346.278 242.647L346.835 242.972L484.51 322.462C484.51 322.462 484.603 322.246 484.805 322.091C484.928 322.013 485.083 321.936 485.269 321.828L486.26 321.255C486.631 321.038 487.049 320.79 487.483 320.542C488.055 320.217 488.582 320.279 489.046 320.682C489.108 320.713 489.155 320.759 489.201 320.821C489.356 320.976 489.495 321.177 489.619 321.394C489.758 321.626 489.882 321.889 489.975 322.168C490.083 322.447 490.176 322.756 490.254 323.066C490.331 323.407 490.393 323.747 490.455 324.119C490.501 324.32 490.517 324.537 490.532 324.754C490.548 324.924 490.563 325.079 490.579 325.265C490.61 325.652 490.625 326.054 490.625 326.472V322.603C490.625 320.468 488.815 317.696 486.602 316.413L356.354 241.195C354.126 239.91 350.922 239.694 349.189 240.684L347.548 241.644L347.486 241.675C347.378 241.752 347.099 241.907 346.79 242.077C346.79 242.077 346.774 242.077 346.774 242.093C346.587 242.198 346.401 242.4 346.278 242.647Z" fill="#4F64D9"/>
<path d="M387.78 410.973L393.228 407.816L474.948 360.627C474.979 359.605 475.397 358.6 476.063 357.702C476.991 356.402 478.383 355.289 479.637 354.561C480.597 354.003 482.035 353.353 483.49 353.353C484.481 353.353 485.347 353.663 486.028 354.189C486.554 353.477 487.529 350.738 487.529 347.426H490.624C490.624 351.698 489.215 355.985 487.483 356.976L485.919 357.89C485.037 358.401 484.34 358.432 484.34 357.952V357.116C484.34 356.187 482.932 356.233 481.184 357.239C479.45 358.246 478.043 359.808 478.043 360.737V361.573C478.043 362.053 476.835 363.121 475.366 363.972L396.338 409.613L387.78 414.551C387.78 414.551 387.765 414.551 387.765 414.566C386.65 415.186 385.212 415.511 383.757 415.511V411.936C385.211 411.932 386.666 411.622 387.78 410.973Z" fill="#4F64D9"/>
<path opacity="0.4" d="M387.78 410.973L393.228 407.816L474.948 360.627C474.979 359.605 475.397 358.6 476.063 357.702C476.991 356.402 478.383 355.289 479.637 354.561C480.597 354.003 482.035 353.353 483.49 353.353C484.481 353.353 485.347 353.663 486.028 354.189C486.554 353.477 487.529 350.738 487.529 347.426H490.624C490.624 351.698 489.215 355.985 487.483 356.976L485.919 357.89C485.037 358.401 484.34 358.432 484.34 357.952V357.116C484.34 356.187 482.932 356.233 481.184 357.239C479.45 358.246 478.043 359.808 478.043 360.737V361.573C478.043 362.053 476.835 363.121 475.366 363.972L396.338 409.613L387.78 414.551C387.78 414.551 387.765 414.551 387.765 414.566C386.65 415.186 385.212 415.511 383.757 415.511V411.936C385.211 411.932 386.666 411.622 387.78 410.973Z" fill="black"/>
<path d="M387.749 378.133C387.749 378.133 387.765 378.117 387.78 378.117L393.228 374.96L456.007 338.729L476.047 327.152C477.471 326.316 478.631 326.022 478.708 326.455C478.724 326.471 478.724 326.486 478.724 326.502V327.415C478.724 328.422 480.132 328.422 481.865 327.415C483.568 326.44 484.309 325.234 484.34 324.258V323.267C484.34 322.756 484.541 322.23 484.805 322.091C484.928 322.013 485.099 321.92 485.269 321.827C485.548 321.673 485.888 321.471 486.26 321.255C486.631 321.038 487.049 320.79 487.483 320.542C488.055 320.217 488.582 320.279 489.046 320.682C489.108 320.713 489.155 320.759 489.201 320.821C489.309 320.929 489.402 321.053 489.48 321.193C489.542 321.255 489.573 321.317 489.619 321.394C489.758 321.626 489.882 321.889 489.975 322.168C490.083 322.447 490.176 322.756 490.254 323.066C490.331 323.407 490.393 323.747 490.455 324.119C490.501 324.32 490.517 324.537 490.532 324.754C490.548 324.924 490.563 325.079 490.579 325.265C490.61 325.652 490.625 326.054 490.625 326.472V347.426H487.531V326.472C487.531 326.147 487.515 325.822 487.5 325.512L487.422 324.738C487.422 324.707 487.422 324.692 487.407 324.661C487.128 327.121 484.776 329.32 482.733 330.48C481.82 331.021 480.412 331.656 478.957 331.656C477.874 331.656 476.898 331.269 476.188 330.634L475.909 330.789C475.723 330.898 475.553 331.006 475.367 331.114L396.339 376.756L387.782 381.694C387.782 381.694 387.766 381.694 387.766 381.709C387.751 381.725 387.735 381.725 387.704 381.74C386.605 382.344 385.182 382.654 383.758 382.654V379.081C385.355 379.079 386.626 378.724 387.749 378.133Z" fill="#4F64D9"/>
<path opacity="0.4" d="M387.749 378.133C387.749 378.133 387.765 378.117 387.78 378.117L393.228 374.96L456.007 338.729L476.047 327.152C477.471 326.316 478.631 326.022 478.708 326.455C478.724 326.471 478.724 326.486 478.724 326.502V327.415C478.724 328.422 480.132 328.422 481.865 327.415C483.568 326.44 484.309 325.234 484.34 324.258V323.267C484.34 322.756 484.541 322.23 484.805 322.091C484.928 322.013 485.099 321.92 485.269 321.827C485.548 321.673 485.888 321.471 486.26 321.255C486.631 321.038 487.049 320.79 487.483 320.542C488.055 320.217 488.582 320.279 489.046 320.682C489.108 320.713 489.155 320.759 489.201 320.821C489.309 320.929 489.402 321.053 489.48 321.193C489.542 321.255 489.573 321.317 489.619 321.394C489.758 321.626 489.882 321.889 489.975 322.168C490.083 322.447 490.176 322.756 490.254 323.066C490.331 323.407 490.393 323.747 490.455 324.119C490.501 324.32 490.517 324.537 490.532 324.754C490.548 324.924 490.563 325.079 490.579 325.265C490.61 325.652 490.625 326.054 490.625 326.472V347.426H487.531V326.472C487.531 326.147 487.515 325.822 487.5 325.512L487.422 324.738C487.422 324.707 487.422 324.692 487.407 324.661C487.128 327.121 484.776 329.32 482.733 330.48C481.82 331.021 480.412 331.656 478.957 331.656C477.874 331.656 476.898 331.269 476.188 330.634L475.909 330.789C475.723 330.898 475.553 331.006 475.367 331.114L396.339 376.756L387.782 381.694C387.782 381.694 387.766 381.694 387.766 381.709C387.751 381.725 387.735 381.725 387.704 381.74C386.605 382.344 385.182 382.654 383.758 382.654V379.081C385.355 379.079 386.626 378.724 387.749 378.133Z" fill="black"/>
<path d="M247.844 300.533V304.17C247.844 305.006 248.371 305.827 249.439 306.46L249.501 306.491L371.191 376.756L379.733 381.694V381.709C379.733 381.709 379.749 381.694 379.749 381.709C380.863 382.329 382.302 382.654 383.757 382.654V379.079C382.302 379.079 380.848 378.769 379.733 378.119L374.301 374.977H374.286L249.499 302.901C248.319 302.214 247.849 301.411 247.844 300.533Z" fill="#4F64D9"/>
<path opacity="0.2" d="M247.844 300.533V304.17C247.844 305.006 248.371 305.827 249.439 306.46L249.501 306.491L371.191 376.756L379.733 381.694V381.709C379.733 381.709 379.749 381.694 379.749 381.709C380.863 382.329 382.302 382.654 383.757 382.654V379.079C382.302 379.079 380.848 378.769 379.733 378.119L374.301 374.977H374.286L249.499 302.901C248.319 302.214 247.849 301.411 247.844 300.533Z" fill="black"/>
<path d="M247.844 333.386V337.023C247.844 337.859 248.371 338.68 249.439 339.313L249.501 339.344L371.191 409.609L379.733 414.547V414.562C379.733 414.562 379.749 414.547 379.749 414.562C380.863 415.182 382.302 415.507 383.757 415.507V411.932C382.302 411.932 380.848 411.622 379.733 410.972L374.301 407.83H374.286L249.499 335.754C248.319 335.068 247.849 334.264 247.844 333.386Z" fill="#4F64D9"/>
<path opacity="0.2" d="M247.844 333.386V337.023C247.844 337.859 248.371 338.68 249.439 339.313L249.501 339.344L371.191 409.609L379.733 414.547V414.562C379.733 414.562 379.749 414.547 379.749 414.562C380.863 415.182 382.302 415.507 383.757 415.507V411.932C382.302 411.932 380.848 411.622 379.733 410.972L374.301 407.83H374.286L249.499 335.754C248.319 335.068 247.849 334.264 247.844 333.386Z" fill="black"/>
<path d="M304.051 205.679L291.142 228.71L309.969 238.73L323.67 218.327L304.051 205.679Z" fill="#FFA8A7"/>
<path d="M349.893 153.817C342.716 152.591 331.844 152.265 324.778 164.389C317.711 176.513 302.491 206.416 302.491 206.416C302.491 206.416 311.389 217.933 324.259 220.024L345.299 186.635L349.893 153.817Z" fill="#4F64D9"/>
<path d="M332.936 435.824H316.867V463.34H332.936V435.824Z" fill="#FFA8A7"/>
<path d="M286.4 429.122L270.339 429.675L269.534 400.556L285.595 400.004L286.4 429.122Z" fill="#FFA8A7"/>
<path d="M316.867 455.406V453.107C315.329 453.777 311.757 467.411 305.381 473.226C300.312 477.85 293.396 483.192 291.639 488.347C289.809 493.709 301.269 496.669 306.004 495.83C311.507 494.856 321.044 490.98 323.439 487.388C325.833 483.796 326.955 478.496 328.9 475.863C330.845 473.231 335.33 470.29 336.381 467.243C336.959 465.57 336.272 461.903 335.46 458.805C334.716 455.963 333.908 452.838 332.939 453.104C332.936 453.451 332.939 454.857 332.939 454.857C331.772 456.15 328.544 457.434 324.904 457.573C322.551 457.666 316.848 457.199 316.867 455.406Z" fill="#263238"/>
<path d="M270.168 424.719C269.333 424.749 268.654 425.925 266.814 427.918C264.589 430.327 260.951 432.923 257.361 434.721C251.344 437.733 239.645 442.368 234.349 444.754C231.041 446.244 231.197 450.24 234.615 452.515C238.035 454.789 246.29 456.428 256.202 454.211C261.602 453.003 268.631 448.015 273.079 448.284C277.528 448.553 285.853 448.489 289.138 446.225C292.423 443.961 291.108 439.125 290.18 434.97C289.166 430.435 287.717 423.497 286.215 423.807L286.264 425.233C284.332 428.159 274.497 429.354 270.252 427.2L270.168 424.719Z" fill="#263238"/>
<path d="M397.669 268.485C401.19 293.324 396.446 298.092 372.842 321.885C360.149 334.678 339.694 353.448 339.694 353.448C339.694 353.448 339.99 361.379 340.157 379.169C340.304 394.836 333.755 445.822 333.755 445.822C333.755 445.822 323.094 450.308 315.773 445.652C315.773 445.652 312.467 407.72 310.684 387.961C308.264 361.161 306.994 347.736 308.364 341.968C309.57 336.885 333.596 306.552 339.138 298.038L288.086 327.7C288.086 327.7 289.827 340.69 289.572 350.373C289.012 371.641 286.401 414.117 286.401 414.117C286.401 414.117 274.711 419.349 268.913 414.839C268.913 414.839 254.204 321.944 254.204 314.32C254.204 302.734 304.509 268.153 314.029 260.099C319.463 255.504 325.523 250.595 325.523 250.595L397.669 268.485Z" fill="#455A64"/>
<path d="M339.139 298.038C339.139 298.038 330.949 291.982 327.474 281.396C327.474 281.396 327.912 288.53 329.292 294.054C330.673 299.577 288.088 327.701 288.088 327.701L339.139 298.038Z" fill="#37474F"/>
<path d="M367.521 109.396C370.396 97.1262 362.782 84.8483 350.514 81.9724C338.246 79.0965 325.97 86.7118 323.095 98.9815C320.22 111.251 327.834 123.529 340.101 126.405C352.369 129.281 364.645 121.666 367.521 109.396Z" fill="#263238"/>
<path d="M393.235 167.638C393.235 167.638 398.877 172.25 398.877 186.832V218.324L398.07 271.274C386.801 283.536 336.113 278.885 323.613 252.148C323.613 252.148 323.712 196.245 323.712 183.726C323.712 171.206 330.688 154.932 349.891 153.816L374.685 159.585L393.235 167.638Z" fill="#263238"/>
<path d="M384.736 120.4C384.736 120.4 381.039 137.771 379.557 140.626C378.074 143.48 375.012 144.291 375.012 144.291L375.271 132.071L384.736 120.4Z" fill="#263238"/>
<path d="M380.097 95.5132C380.097 95.5132 384.078 94.8305 387.183 98.0045C390.225 101.117 388.527 110.858 384.737 120.4L377.773 121.199L380.097 95.5132Z" fill="#263238"/>
<path d="M375.684 121.205C377.08 122.039 379.072 119.357 380.795 117.554C382.516 115.752 388.138 113.289 390.943 119.199C393.8 125.222 388.468 133.18 384.042 134.569C376.414 136.963 375.27 132.071 375.27 132.071L374.687 159.587C368.114 166.931 345.635 165.179 349.873 158.859L349.894 150.484C349.894 150.484 342.982 151.533 339.612 151.012C334.002 150.145 330.474 145.718 328.773 139.646C326.04 129.892 325.003 122.017 327.321 102.835C329.862 81.8095 354.313 81.5914 367.516 89.9028C380.719 98.2142 375.684 121.205 375.684 121.205Z" fill="#FFA8A7"/>
<path d="M356.257 126.017H355.055C350.764 126.017 347.274 122.526 347.274 118.233C347.274 113.942 350.764 110.451 355.055 110.451H356.257C360.547 110.451 364.039 113.942 364.039 118.233C364.039 122.525 360.549 126.017 356.257 126.017ZM355.055 111.763C351.489 111.763 348.585 114.665 348.585 118.233C348.585 121.802 351.489 124.704 355.055 124.704H356.257C359.824 124.704 362.727 121.802 362.727 118.233C362.727 114.665 359.824 111.763 356.257 111.763H355.055Z" fill="#263238"/>
<path d="M332.53 126.017H331.329C327.038 126.017 323.548 122.526 323.548 118.233C323.548 113.942 327.038 110.451 331.329 110.451H332.53C336.821 110.451 340.313 113.942 340.313 118.233C340.313 122.525 336.821 126.017 332.53 126.017ZM331.329 111.763C327.763 111.763 324.861 114.665 324.861 118.233C324.861 121.802 327.764 124.704 331.329 124.704H332.53C336.098 124.704 339 121.802 339 118.233C339 114.665 336.098 111.763 332.53 111.763H331.329Z" fill="#263238"/>
<path d="M347.37 116.698C346.649 115.516 345.036 114.694 343.259 114.603C341.728 114.525 340.377 115.031 339.672 115.957L338.626 115.164C339.607 113.872 341.317 113.189 343.325 113.293C345.557 113.407 347.536 114.45 348.49 116.015L347.37 116.698Z" fill="#263238"/>
<path d="M379.874 116.636H363.319V117.948H379.874V116.636Z" fill="#263238"/>
<path d="M375.683 123.554C376.386 123.568 379.057 119.136 380.795 117.554C383.202 115.362 380.097 95.5132 380.097 95.5132C380.097 95.5132 382.412 90.5798 377.773 85.4733C374.473 81.8419 368.959 81.438 359.544 79.9586C354.605 79.1817 347.117 77.7995 342.184 76.8818C336.293 75.7867 331.418 74.6269 327.26 78.2415C324.023 81.0551 322.63 86.0265 324.372 89.945C324.78 90.8641 325.373 91.6946 326.045 92.442C327.237 93.7679 328.587 94.8122 330.284 95.3626C330.284 95.3626 332.852 97.6414 341.787 98.7294C350.722 99.8174 364.639 98.5197 366.54 98.2607C369.131 97.906 369.684 100.417 371.081 107.279C372.306 113.301 373.323 123.509 375.683 123.554Z" fill="#382626"/>
<path d="M380.083 97.0559L388.525 92.5222C387.328 90.1027 384.465 89.1554 382.135 90.4081C379.803 91.6608 378.884 94.6363 380.083 97.0559Z" fill="#263238"/>
<path d="M349.892 150.485C349.892 150.485 362.413 147.963 366.791 145.635C369.721 144.077 372.135 141.377 372.843 139.648C372.843 139.648 372.022 143.363 369.405 146.71C366.203 150.804 349.892 153.818 349.892 153.818V150.485Z" fill="#F28F8F"/>
<path d="M352.902 118.073C352.902 119.513 354.025 120.677 355.411 120.674C356.798 120.67 357.921 119.5 357.921 118.06C357.921 116.62 356.798 115.456 355.411 115.459C354.025 115.463 352.902 116.635 352.902 118.073Z" fill="#263238"/>
<path d="M356.931 107.684L362.299 110.647C363.091 109.104 362.529 107.19 361.047 106.372C359.566 105.555 357.723 106.141 356.931 107.684Z" fill="#263238"/>
<path d="M351.026 135.409L345.299 137.559C345.866 139.201 347.608 140.051 349.19 139.457C350.772 138.863 351.594 137.052 351.026 135.409Z" fill="#F28F8F"/>
<path d="M329.884 109.892L334.779 106.122C333.779 104.72 331.875 104.428 330.523 105.469C329.172 106.51 328.885 108.491 329.884 109.892Z" fill="#263238"/>
<path d="M332.034 117.359C332.034 118.799 333.157 119.963 334.543 119.959C335.928 119.955 337.052 118.785 337.052 117.345C337.052 115.905 335.929 114.741 334.543 114.744C333.158 114.748 332.034 115.919 332.034 117.359Z" fill="#263238"/>
<path d="M344.435 115.345L344.143 130.563L335.149 128.582L344.435 115.345Z" fill="#F28F8F"/>
<path d="M329.057 241.837V243.288C329.057 244.752 328.274 246.108 327.012 246.84L287.929 269.335C287.297 269.701 286.588 269.88 285.877 269.88C285.173 269.88 284.463 269.701 283.832 269.335L212.136 227.937C210.867 227.205 210.084 225.848 210.084 224.385V223.387L285.878 267.154L329.057 241.837Z" fill="#4F64D9"/>
<path opacity="0.6" d="M329.057 241.837V243.288C329.057 244.752 328.274 246.108 327.012 246.84L287.929 269.335C287.297 269.701 286.588 269.88 285.877 269.88C285.173 269.88 284.463 269.701 283.832 269.335L212.136 227.937C210.867 227.205 210.084 225.848 210.084 224.385V223.387L285.878 267.154L329.057 241.837Z" fill="black"/>
<path d="M210.082 223.385L252.593 198.84C253.349 198.403 254.281 198.403 255.036 198.84L328.786 241.431C329.147 241.641 329.147 242.163 328.786 242.371L285.876 267.154L210.082 223.385Z" fill="#4F64D9"/>
<path opacity="0.5" d="M210.082 223.385L252.593 198.84C253.349 198.403 254.281 198.403 255.036 198.84L328.786 241.431C329.147 241.641 329.147 242.163 328.786 242.371L285.876 267.154L210.082 223.385Z" fill="black"/>
<path d="M286.266 263.545L309.195 250.318L242.152 211.603L219.103 224.76L286.266 263.545Z" fill="#263238"/>
<path d="M297.536 226.752L297.114 226.996L285.875 233.484L265.89 221.943L265.474 221.706L277.135 214.974L297.536 226.752Z" fill="#263238"/>
<path d="M297.114 226.996L285.876 233.484L265.891 221.943L277.135 215.454L297.114 226.996Z" fill="#263238"/>
<path opacity="0.7" d="M285.876 267.152V269.88C285.172 269.88 284.461 269.701 283.831 269.335L212.135 227.937C210.865 227.205 210.083 225.848 210.083 224.385V223.387L285.876 267.152Z" fill="black"/>
<path d="M284.72 267.758C283.363 268.281 281.821 268.181 280.536 267.434L209.155 226.214C207.9 225.49 207.038 224.248 206.794 222.82L198.979 176.211C198.935 175.946 198.914 175.68 198.914 175.414C198.914 174.115 199.431 172.874 200.35 171.961L274.529 214.802C275.455 215.341 276.094 216.259 276.273 217.315L284.72 267.758Z" fill="#4F64D9"/>
<path opacity="0.5" d="M284.72 267.758C283.363 268.281 281.821 268.181 280.536 267.434L209.155 226.214C207.9 225.49 207.038 224.248 206.794 222.82L198.979 176.211C198.935 175.946 198.914 175.68 198.914 175.414C198.914 174.115 199.431 172.874 200.35 171.961L274.529 214.802C275.455 215.341 276.094 216.259 276.273 217.315L284.72 267.758Z" fill="black"/>
<path d="M285.876 267.155L285.387 267.435C285.172 267.558 284.95 267.665 284.72 267.759L276.274 217.316C276.095 216.26 275.456 215.343 274.53 214.804L200.35 171.963C200.637 171.676 200.975 171.425 201.341 171.21L275.672 214.129C276.598 214.667 277.236 215.586 277.415 216.642L285.876 267.155Z" fill="#E0E0E0"/>
<path d="M244.517 224.731C243.994 221.61 240.773 217.465 237.323 215.474C233.873 213.482 231.5 214.397 232.023 217.517C232.547 220.638 235.768 224.783 239.219 226.775C242.668 228.766 245.041 227.851 244.517 224.731Z" fill="#4F64D9"/>
<path d="M259.14 255.07C259.137 255.015 259.017 252.508 257.938 249.091C256.847 245.635 253.574 232.36 246.119 230.36C245.236 230.122 244.286 230.03 243.392 230.274C241.319 230.838 240.373 232.987 239.968 234.913C239.373 237.739 239.76 240.651 239.92 243.502C238.777 242.194 237.431 241.068 235.946 240.17C234.534 239.317 233.071 238.428 231.371 238.535C230.912 238.563 230.396 238.691 230.175 239.095C229.902 239.596 230.235 240.205 230.598 240.644C231.344 241.548 232.256 242.304 232.995 243.213C233.613 243.975 234.1 244.83 234.619 245.662C235.563 247.177 236.62 248.617 237.674 250.057C239.827 252.993 242.137 255.799 245.186 257.832C247.075 259.09 251.581 261.709 256.447 262.317C261.888 262.997 267.182 262.916 270.62 261.709L259.14 255.07Z" fill="#FFA8A7"/>
<path d="M391.748 168.04C386.716 165.459 379.374 175.715 381.711 186.441C384.049 197.166 395.559 234.867 395.559 234.867C395.559 234.867 343.557 239.523 339.141 240.062C336.062 240.437 332.612 238.872 329.76 237.926C325.867 236.636 321.952 235.736 318.12 234.32C317.433 234.067 316.717 233.808 315.988 233.878C315.259 233.949 314.516 234.453 314.427 235.179C314.374 235.614 314.555 236.04 314.748 236.433C315.97 238.926 317.834 241.1 320.111 242.687C321.171 243.424 322.343 244.045 323.268 244.961C323.88 245.568 325.207 247.239 324.723 248.158L304.055 260.053C304.055 260.053 308.821 264.194 326.043 259.366C337.939 256.031 344.146 252.931 344.146 252.931C344.146 252.931 405.428 255.48 416.494 252.12C420.406 250.932 421.822 248.161 419.178 235.542C416.107 220.886 407.427 194.231 405.451 187.24C401.129 171.963 400.069 172.309 391.748 168.04Z" fill="#FFA8A7"/>
<path d="M389.158 165.867C389.158 165.867 397.454 168.196 401.028 172.872C404.476 177.38 418.452 223.076 418.452 223.076C418.452 223.076 407.73 232.993 392.196 230.13C392.196 230.13 381.1 198.666 379.922 190.268C377.773 177.241 384.132 166.993 389.158 165.867Z" fill="#4F64D9"/>
<path d="M344.342 196.374C343.675 192.856 345.873 190.962 349.252 192.143C352.631 193.323 355.912 197.131 356.579 200.65C357.247 204.166 345.009 199.891 344.342 196.374Z" fill="#4F64D9"/>
<path d="M367.552 207.335L357.567 200.993C358.08 203.7 354.434 203.321 351.155 202.177C347.878 201.031 343.865 198.734 343.353 196.029L334.652 195.918C333.855 195.908 333.837 196.953 334.611 197.819C336.764 200.226 341.766 204.481 352.291 208.157C362.83 211.839 366.866 210.698 368.38 209.548C368.919 209.137 368.468 207.917 367.552 207.335Z" fill="#4F64D9"/>
</svg>
