<svg width="490" height="61" viewBox="0 0 490 61" fill="none" xmlns="http://www.w3.org/2000/svg">
<mask id="path-1-inside-1_1_1037" fill="white">
<path d="M486.767 38.5104C486.164 38.5104 485.556 38.4477 484.967 38.5239C483.901 38.6584 483.366 38.2056 482.999 37.2329C481.176 32.3737 479.295 27.5369 477.441 22.6912C476.606 20.5126 475.799 18.325 474.943 16.1554C473.814 13.3089 471.225 11.9552 468.541 12.8069C466.854 13.3403 465.839 14.5865 465.172 16.1375C462.942 21.3419 460.729 26.5597 458.499 31.764C457.107 35.014 454.894 37.4301 451.285 38.1877C446.162 39.2635 441.13 37.7036 438.895 32.1989C435.617 24.1301 432.448 16.021 429.224 7.92976C428.916 7.15874 429.102 6.84047 429.972 6.86289C431.455 6.89875 432.942 6.90771 434.429 6.86289C435.272 6.84047 435.662 7.23943 435.939 7.96562C437.494 12.0628 439.076 16.1465 440.649 20.2391C441.787 23.2022 442.943 26.1562 444.05 29.1282C444.906 31.4323 446.516 32.7906 448.991 32.9609C450.279 33.0506 451.607 32.683 452.292 31.522C453.607 29.2986 454.872 27.0348 455.933 24.6904C457.537 21.1491 458.957 17.5226 460.453 13.932C462.026 10.1442 464.755 7.64735 468.885 6.97944C472.893 6.33393 477.055 7.74597 479.204 11.6504C480.728 14.4162 481.829 17.4151 483.017 20.3512C485.289 25.9725 487.492 31.6251 489.714 37.2687C490.194 38.4835 490.171 38.506 488.852 38.5104C488.757 38.5104 488.662 38.5104 488.566 38.5104C487.963 38.5104 487.365 38.5104 486.762 38.5104H486.767Z"/>
<path d="M391.848 20.3153C391.848 24.2915 391.862 28.2631 391.848 32.2392C391.834 35.0095 389.985 37.6901 387.382 38.3222C383.792 39.1918 380.314 38.9946 377.571 36.1122C376.81 35.3098 376.207 34.3147 375.717 33.315C372.611 27.0214 369.56 20.7053 366.491 14.3938C366.382 14.1696 366.255 13.95 366.137 13.7348C365.765 13.0714 365.158 12.8203 364.455 13.0041C363.743 13.1924 363.272 13.6945 363.186 14.461C363.163 14.6762 363.186 14.9003 363.186 15.1199C363.186 22.5029 363.186 29.8903 363.186 37.2732C363.186 38.5463 363.045 38.6898 361.785 38.6942C360.71 38.6942 359.631 38.6808 358.557 38.6987C357.89 38.7077 357.559 38.3984 357.523 37.7618C357.509 37.5422 357.505 37.3225 357.505 37.1074C357.505 29.5048 357.505 21.9022 357.505 14.2951C357.505 12.0538 358.117 10.0321 359.853 8.48561C361.73 6.81358 364.038 6.72841 366.35 6.97944C369.438 7.32012 371.478 9.14456 372.82 11.8297C375.989 18.1547 379.154 24.4842 382.354 30.7958C382.622 31.3247 383.043 31.8851 383.542 32.172C384.825 32.8982 386.113 32.154 386.276 30.6927C386.308 30.4148 386.285 30.1279 386.285 29.85C386.285 22.6508 386.285 15.4561 386.285 8.25699C386.285 7.06909 386.444 6.9122 387.65 6.90771C388.661 6.90323 389.676 6.90323 390.687 6.90771C391.485 6.9122 391.871 7.25288 391.862 8.11355C391.83 12.1793 391.848 16.2496 391.848 20.3153Z"/>
<path d="M395.407 22.4625C395.112 18.3385 396.568 14.7479 399.238 11.6011C401.301 9.16697 404.021 7.78183 407.118 7.14529C410.985 6.35186 414.875 6.25325 418.679 7.47253C424.292 9.27007 427.733 13.1341 428.839 18.8092C429.56 22.5074 429.537 26.2549 427.896 29.8186C425.747 34.4895 422.188 37.5422 417.06 38.3356C412.467 39.0484 407.784 39.1918 403.454 37.0088C398.898 34.7181 396.323 30.9572 395.57 25.968C395.52 25.6273 395.421 25.2911 395.412 24.9504C395.389 24.139 395.402 23.3232 395.402 22.4625H395.407ZM412.227 33.7588C418.52 34.4492 423.738 29.0341 423.512 22.3639C423.339 17.2537 419.468 11.6638 412.059 11.7579C405.866 11.8386 401.178 16.3706 400.952 22.3505C400.716 28.4917 405.359 34.3819 412.227 33.7633V33.7588Z"/>
<path d="M347.15 22.7091C347.15 17.8319 347.168 12.9548 347.132 8.07769C347.127 7.20805 347.358 6.81358 348.288 6.8584C349.453 6.91668 350.623 6.89427 351.792 6.88082C352.491 6.87185 352.74 7.2215 352.731 7.87148C352.713 8.9025 352.731 9.93351 352.731 10.9645C352.731 19.6878 352.731 28.411 352.731 37.1343C352.731 38.4835 352.704 38.5104 351.348 38.5104C350.305 38.5104 349.258 38.4656 348.22 38.5239C347.376 38.5687 347.132 38.2415 347.136 37.4346C347.163 32.5261 347.15 27.6176 347.15 22.7091Z"/>
<path d="M366.192 46.0234V54.2311H362.791V40.8952C363.943 40.8952 365.103 40.8638 366.255 40.9221C366.495 40.9356 366.795 41.2269 366.931 41.469C368.486 44.1407 370.05 46.8034 371.523 49.5199C371.954 50.3133 372.099 51.2546 372.412 52.2408C373.464 48.2199 376.052 45.1089 377.875 41.6035C378.165 41.0476 378.541 40.8549 379.154 40.8818C380.124 40.9221 381.098 40.8907 382.123 40.8907V54.2222H378.777V46.1534C378.582 46.2072 378.478 46.2206 378.473 46.243C378.319 48.4978 376.918 50.1967 375.812 52.0212C374.33 54.4597 374.33 54.4463 371.451 54.3297C370.825 54.3028 370.394 54.1191 370.063 53.5542C369.433 52.4784 368.644 51.4877 368.078 50.3805C367.384 49.0223 366.853 47.5789 366.187 46.0234H366.192Z"/>
<path d="M465.231 54.2804C463.903 54.2804 462.574 54.3342 461.251 54.267C459.836 54.1953 458.707 53.478 457.955 52.3305C456.059 49.4257 456.032 45.5213 458.122 42.6748C459.002 41.478 460.285 40.8952 461.799 40.8907C463.889 40.8818 465.975 40.8907 468.065 40.8907C471.016 40.8907 472.676 42.128 473.501 44.9475C474.249 47.4937 474.027 49.9367 472.617 52.2139C471.764 53.5946 470.468 54.2715 468.831 54.2849C467.63 54.2939 466.428 54.2849 465.227 54.2849L465.231 54.2804ZM465.295 43.9524C464.506 43.9524 463.712 43.9434 462.924 43.9524C461.686 43.9614 460.707 44.5576 460.457 45.7096C460.244 46.6958 460.104 47.7716 460.271 48.7533C460.566 50.4791 461.273 51.3129 463.277 51.2681C464.796 51.2322 466.31 51.2591 467.829 51.2367C468.799 51.2188 469.534 50.775 469.91 49.8785C470.531 48.4082 470.54 46.9109 469.955 45.4272C469.57 44.45 468.808 43.9793 467.761 43.9614C466.94 43.9479 466.115 43.9614 465.295 43.9614V43.9524Z"/>
<path d="M396.4 54.2446V44.71H399.002C399.043 45.1089 399.084 45.5258 399.152 46.2341C400.022 44.5307 401.419 44.6338 402.806 44.6382C406.093 44.6562 409.385 44.6427 412.672 44.6427C415.256 44.6427 416.625 45.7589 416.829 48.323C416.983 50.246 416.861 52.187 416.861 54.1997H414.245C414.218 53.8501 414.186 53.4915 414.145 53.0029C412.295 55.1546 409.874 54.1863 407.68 54.2401C406.551 54.267 406.002 53.348 405.753 52.2722C405.372 50.6181 406.27 48.5919 408.455 48.7488C410.151 48.8699 411.86 48.7712 413.551 48.7712C413.751 47.8433 413.338 47.5206 412.554 47.5206C408.727 47.5206 404.901 47.5206 401.074 47.5206C400.335 47.5206 399.827 47.8568 399.782 48.5964C399.696 50.0578 399.678 51.5236 399.637 52.9894C399.623 53.4108 399.637 53.8322 399.637 54.2446H396.4ZM413.578 50.3402C412.254 50.3402 410.994 50.3088 409.734 50.3671C409.462 50.3805 409.208 50.7212 408.949 50.9095C409.19 51.1022 409.421 51.4474 409.67 51.4608C410.677 51.5191 411.688 51.4922 412.694 51.4608C413.333 51.4429 413.678 51.1112 413.578 50.3402Z"/>
<path d="M431.536 40.5232H434.737V46.0099C436.32 44.2034 438.192 44.4545 440.001 44.8669C441.483 45.2031 442.39 46.3103 442.522 47.803C442.685 49.6992 442.667 51.6088 442.735 53.5139C442.753 54.0608 442.522 54.3253 441.955 54.3163C441.166 54.3028 440.382 54.3163 439.448 54.3163C439.448 52.7743 439.461 51.286 439.439 49.7933C439.43 49.3361 439.384 48.8564 439.235 48.4216C438.854 47.2965 438.147 47.4937 436.066 47.5564C435.182 47.5833 434.764 48.2244 434.764 49.094C434.764 50.4388 434.764 51.7836 434.764 53.1284C434.764 53.4691 434.764 53.8053 434.764 54.2849H431.546V40.5232H431.536Z"/>
<path d="M391.358 48.7757C391.467 47.8523 391.059 47.5116 390.225 47.5206C388.266 47.534 386.303 47.5206 384.263 47.5206V44.6607C386.652 44.6607 389.023 44.5351 391.376 44.701C393.24 44.831 394.437 46.2117 394.623 48.3813C394.786 50.2998 394.659 52.2408 394.659 54.2311H392.002C391.97 53.8277 391.943 53.4332 391.907 52.9715C390.016 55.177 387.523 54.2804 385.242 54.2266C384.05 54.1997 383.302 52.7115 383.433 51.1471C383.547 49.7754 384.485 48.7937 385.755 48.7802C387.618 48.7623 389.481 48.7757 391.354 48.7757H391.358ZM391.372 50.3402C390.053 50.3402 388.792 50.3088 387.532 50.3626C387.255 50.376 386.997 50.6943 386.729 50.8691C386.988 51.0753 387.233 51.4384 387.505 51.4564C388.443 51.5281 389.395 51.4833 390.338 51.4743C391.018 51.4698 391.386 51.1426 391.372 50.3312V50.3402Z"/>
<path d="M426.531 54.258C426.531 53.6125 426.549 52.9715 426.531 52.3305C426.486 51.0574 426.586 49.7485 426.314 48.5247C425.942 46.8258 424.414 47.7044 423.376 47.543C422.619 47.4265 422.088 47.8209 422.034 48.6323C421.952 49.874 421.898 51.1157 421.848 52.3574C421.825 52.9491 421.848 53.5408 421.848 54.2087H418.615V44.7144H421.213C421.281 45.0372 421.345 45.3375 421.413 45.6558C423.53 44.3648 425.702 44.2214 427.919 45.212C429.056 45.7186 429.582 46.6868 429.637 47.9061C429.732 49.9905 429.823 52.075 429.918 54.258H426.531Z"/>
<path d="M451.988 48.7757C451.947 48.3319 451.916 47.9778 451.875 47.5699C452.836 47.2875 453.788 47.0051 454.785 46.7092C455.656 49.1971 455.13 51.6984 455.284 54.2266H452.632C452.573 53.8546 452.514 53.4736 452.419 52.855C451.648 54.267 450.483 54.3656 449.254 54.3387C448.212 54.3163 447.169 54.3432 446.126 54.2939C445.052 54.2446 444.317 53.5408 444.208 52.4829C444.149 51.9315 444.145 51.3667 444.199 50.8153C444.335 49.4661 445.124 48.7892 446.516 48.7847C448.311 48.7757 450.111 48.7847 451.993 48.7847L451.988 48.7757ZM451.934 50.3402C450.646 50.3402 449.359 50.3133 448.071 50.3626C447.808 50.3716 447.559 50.654 447.3 50.8109C447.536 51.0395 447.758 51.4474 448.012 51.4608C449.019 51.5281 450.034 51.4967 451.041 51.4608C451.68 51.4384 452.024 51.1067 451.934 50.3402Z"/>
<path d="M452.319 44.7324C452.147 45.5482 452.02 46.3103 451.802 47.0499C451.743 47.2471 451.421 47.4982 451.217 47.5027C449.109 47.534 447.001 47.5251 444.829 47.5251V44.7369H452.319V44.7324Z"/>
</mask>
<path d="M486.767 38.5104C486.164 38.5104 485.556 38.4477 484.967 38.5239C483.901 38.6584 483.366 38.2056 482.999 37.2329C481.176 32.3737 479.295 27.5369 477.441 22.6912C476.606 20.5126 475.799 18.325 474.943 16.1554C473.814 13.3089 471.225 11.9552 468.541 12.8069C466.854 13.3403 465.839 14.5865 465.172 16.1375C462.942 21.3419 460.729 26.5597 458.499 31.764C457.107 35.014 454.894 37.4301 451.285 38.1877C446.162 39.2635 441.13 37.7036 438.895 32.1989C435.617 24.1301 432.448 16.021 429.224 7.92976C428.916 7.15874 429.102 6.84047 429.972 6.86289C431.455 6.89875 432.942 6.90771 434.429 6.86289C435.272 6.84047 435.662 7.23943 435.939 7.96562C437.494 12.0628 439.076 16.1465 440.649 20.2391C441.787 23.2022 442.943 26.1562 444.05 29.1282C444.906 31.4323 446.516 32.7906 448.991 32.9609C450.279 33.0506 451.607 32.683 452.292 31.522C453.607 29.2986 454.872 27.0348 455.933 24.6904C457.537 21.1491 458.957 17.5226 460.453 13.932C462.026 10.1442 464.755 7.64735 468.885 6.97944C472.893 6.33393 477.055 7.74597 479.204 11.6504C480.728 14.4162 481.829 17.4151 483.017 20.3512C485.289 25.9725 487.492 31.6251 489.714 37.2687C490.194 38.4835 490.171 38.506 488.852 38.5104C488.757 38.5104 488.662 38.5104 488.566 38.5104C487.963 38.5104 487.365 38.5104 486.762 38.5104H486.767Z" fill="white"/>
<path d="M391.848 20.3153C391.848 24.2915 391.862 28.2631 391.848 32.2392C391.834 35.0095 389.985 37.6901 387.382 38.3222C383.792 39.1918 380.314 38.9946 377.571 36.1122C376.81 35.3098 376.207 34.3147 375.717 33.315C372.611 27.0214 369.56 20.7053 366.491 14.3938C366.382 14.1696 366.255 13.95 366.137 13.7348C365.765 13.0714 365.158 12.8203 364.455 13.0041C363.743 13.1924 363.272 13.6945 363.186 14.461C363.163 14.6762 363.186 14.9003 363.186 15.1199C363.186 22.5029 363.186 29.8903 363.186 37.2732C363.186 38.5463 363.045 38.6898 361.785 38.6942C360.71 38.6942 359.631 38.6808 358.557 38.6987C357.89 38.7077 357.559 38.3984 357.523 37.7618C357.509 37.5422 357.505 37.3225 357.505 37.1074C357.505 29.5048 357.505 21.9022 357.505 14.2951C357.505 12.0538 358.117 10.0321 359.853 8.48561C361.73 6.81358 364.038 6.72841 366.35 6.97944C369.438 7.32012 371.478 9.14456 372.82 11.8297C375.989 18.1547 379.154 24.4842 382.354 30.7958C382.622 31.3247 383.043 31.8851 383.542 32.172C384.825 32.8982 386.113 32.154 386.276 30.6927C386.308 30.4148 386.285 30.1279 386.285 29.85C386.285 22.6508 386.285 15.4561 386.285 8.25699C386.285 7.06909 386.444 6.9122 387.65 6.90771C388.661 6.90323 389.676 6.90323 390.687 6.90771C391.485 6.9122 391.871 7.25288 391.862 8.11355C391.83 12.1793 391.848 16.2496 391.848 20.3153Z" fill="white"/>
<path d="M395.407 22.4625C395.112 18.3385 396.568 14.7479 399.238 11.6011C401.301 9.16697 404.021 7.78183 407.118 7.14529C410.985 6.35186 414.875 6.25325 418.679 7.47253C424.292 9.27007 427.733 13.1341 428.839 18.8092C429.56 22.5074 429.537 26.2549 427.896 29.8186C425.747 34.4895 422.188 37.5422 417.06 38.3356C412.467 39.0484 407.784 39.1918 403.454 37.0088C398.898 34.7181 396.323 30.9572 395.57 25.968C395.52 25.6273 395.421 25.2911 395.412 24.9504C395.389 24.139 395.402 23.3232 395.402 22.4625H395.407ZM412.227 33.7588C418.52 34.4492 423.738 29.0341 423.512 22.3639C423.339 17.2537 419.468 11.6638 412.059 11.7579C405.866 11.8386 401.178 16.3706 400.952 22.3505C400.716 28.4917 405.359 34.3819 412.227 33.7633V33.7588Z" fill="white"/>
<path d="M347.15 22.7091C347.15 17.8319 347.168 12.9548 347.132 8.07769C347.127 7.20805 347.358 6.81358 348.288 6.8584C349.453 6.91668 350.623 6.89427 351.792 6.88082C352.491 6.87185 352.74 7.2215 352.731 7.87148C352.713 8.9025 352.731 9.93351 352.731 10.9645C352.731 19.6878 352.731 28.411 352.731 37.1343C352.731 38.4835 352.704 38.5104 351.348 38.5104C350.305 38.5104 349.258 38.4656 348.22 38.5239C347.376 38.5687 347.132 38.2415 347.136 37.4346C347.163 32.5261 347.15 27.6176 347.15 22.7091Z" fill="white"/>
<path d="M366.192 46.0234V54.2311H362.791V40.8952C363.943 40.8952 365.103 40.8638 366.255 40.9221C366.495 40.9356 366.795 41.2269 366.931 41.469C368.486 44.1407 370.05 46.8034 371.523 49.5199C371.954 50.3133 372.099 51.2546 372.412 52.2408C373.464 48.2199 376.052 45.1089 377.875 41.6035C378.165 41.0476 378.541 40.8549 379.154 40.8818C380.124 40.9221 381.098 40.8907 382.123 40.8907V54.2222H378.777V46.1534C378.582 46.2072 378.478 46.2206 378.473 46.243C378.319 48.4978 376.918 50.1967 375.812 52.0212C374.33 54.4597 374.33 54.4463 371.451 54.3297C370.825 54.3028 370.394 54.1191 370.063 53.5542C369.433 52.4784 368.644 51.4877 368.078 50.3805C367.384 49.0223 366.853 47.5789 366.187 46.0234H366.192Z" fill="white"/>
<path d="M465.231 54.2804C463.903 54.2804 462.574 54.3342 461.251 54.267C459.836 54.1953 458.707 53.478 457.955 52.3305C456.059 49.4257 456.032 45.5213 458.122 42.6748C459.002 41.478 460.285 40.8952 461.799 40.8907C463.889 40.8818 465.975 40.8907 468.065 40.8907C471.016 40.8907 472.676 42.128 473.501 44.9475C474.249 47.4937 474.027 49.9367 472.617 52.2139C471.764 53.5946 470.468 54.2715 468.831 54.2849C467.63 54.2939 466.428 54.2849 465.227 54.2849L465.231 54.2804ZM465.295 43.9524C464.506 43.9524 463.712 43.9434 462.924 43.9524C461.686 43.9614 460.707 44.5576 460.457 45.7096C460.244 46.6958 460.104 47.7716 460.271 48.7533C460.566 50.4791 461.273 51.3129 463.277 51.2681C464.796 51.2322 466.31 51.2591 467.829 51.2367C468.799 51.2188 469.534 50.775 469.91 49.8785C470.531 48.4082 470.54 46.9109 469.955 45.4272C469.57 44.45 468.808 43.9793 467.761 43.9614C466.94 43.9479 466.115 43.9614 465.295 43.9614V43.9524Z" fill="white"/>
<path d="M396.4 54.2446V44.71H399.002C399.043 45.1089 399.084 45.5258 399.152 46.2341C400.022 44.5307 401.419 44.6338 402.806 44.6382C406.093 44.6562 409.385 44.6427 412.672 44.6427C415.256 44.6427 416.625 45.7589 416.829 48.323C416.983 50.246 416.861 52.187 416.861 54.1997H414.245C414.218 53.8501 414.186 53.4915 414.145 53.0029C412.295 55.1546 409.874 54.1863 407.68 54.2401C406.551 54.267 406.002 53.348 405.753 52.2722C405.372 50.6181 406.27 48.5919 408.455 48.7488C410.151 48.8699 411.86 48.7712 413.551 48.7712C413.751 47.8433 413.338 47.5206 412.554 47.5206C408.727 47.5206 404.901 47.5206 401.074 47.5206C400.335 47.5206 399.827 47.8568 399.782 48.5964C399.696 50.0578 399.678 51.5236 399.637 52.9894C399.623 53.4108 399.637 53.8322 399.637 54.2446H396.4ZM413.578 50.3402C412.254 50.3402 410.994 50.3088 409.734 50.3671C409.462 50.3805 409.208 50.7212 408.949 50.9095C409.19 51.1022 409.421 51.4474 409.67 51.4608C410.677 51.5191 411.688 51.4922 412.694 51.4608C413.333 51.4429 413.678 51.1112 413.578 50.3402Z" fill="white"/>
<path d="M431.536 40.5232H434.737V46.0099C436.32 44.2034 438.192 44.4545 440.001 44.8669C441.483 45.2031 442.39 46.3103 442.522 47.803C442.685 49.6992 442.667 51.6088 442.735 53.5139C442.753 54.0608 442.522 54.3253 441.955 54.3163C441.166 54.3028 440.382 54.3163 439.448 54.3163C439.448 52.7743 439.461 51.286 439.439 49.7933C439.43 49.3361 439.384 48.8564 439.235 48.4216C438.854 47.2965 438.147 47.4937 436.066 47.5564C435.182 47.5833 434.764 48.2244 434.764 49.094C434.764 50.4388 434.764 51.7836 434.764 53.1284C434.764 53.4691 434.764 53.8053 434.764 54.2849H431.546V40.5232H431.536Z" fill="white"/>
<path d="M391.358 48.7757C391.467 47.8523 391.059 47.5116 390.225 47.5206C388.266 47.534 386.303 47.5206 384.263 47.5206V44.6607C386.652 44.6607 389.023 44.5351 391.376 44.701C393.24 44.831 394.437 46.2117 394.623 48.3813C394.786 50.2998 394.659 52.2408 394.659 54.2311H392.002C391.97 53.8277 391.943 53.4332 391.907 52.9715C390.016 55.177 387.523 54.2804 385.242 54.2266C384.05 54.1997 383.302 52.7115 383.433 51.1471C383.547 49.7754 384.485 48.7937 385.755 48.7802C387.618 48.7623 389.481 48.7757 391.354 48.7757H391.358ZM391.372 50.3402C390.053 50.3402 388.792 50.3088 387.532 50.3626C387.255 50.376 386.997 50.6943 386.729 50.8691C386.988 51.0753 387.233 51.4384 387.505 51.4564C388.443 51.5281 389.395 51.4833 390.338 51.4743C391.018 51.4698 391.386 51.1426 391.372 50.3312V50.3402Z" fill="white"/>
<path d="M426.531 54.258C426.531 53.6125 426.549 52.9715 426.531 52.3305C426.486 51.0574 426.586 49.7485 426.314 48.5247C425.942 46.8258 424.414 47.7044 423.376 47.543C422.619 47.4265 422.088 47.8209 422.034 48.6323C421.952 49.874 421.898 51.1157 421.848 52.3574C421.825 52.9491 421.848 53.5408 421.848 54.2087H418.615V44.7144H421.213C421.281 45.0372 421.345 45.3375 421.413 45.6558C423.53 44.3648 425.702 44.2214 427.919 45.212C429.056 45.7186 429.582 46.6868 429.637 47.9061C429.732 49.9905 429.823 52.075 429.918 54.258H426.531Z" fill="white"/>
<path d="M451.988 48.7757C451.947 48.3319 451.916 47.9778 451.875 47.5699C452.836 47.2875 453.788 47.0051 454.785 46.7092C455.656 49.1971 455.13 51.6984 455.284 54.2266H452.632C452.573 53.8546 452.514 53.4736 452.419 52.855C451.648 54.267 450.483 54.3656 449.254 54.3387C448.212 54.3163 447.169 54.3432 446.126 54.2939C445.052 54.2446 444.317 53.5408 444.208 52.4829C444.149 51.9315 444.145 51.3667 444.199 50.8153C444.335 49.4661 445.124 48.7892 446.516 48.7847C448.311 48.7757 450.111 48.7847 451.993 48.7847L451.988 48.7757ZM451.934 50.3402C450.646 50.3402 449.359 50.3133 448.071 50.3626C447.808 50.3716 447.559 50.654 447.3 50.8109C447.536 51.0395 447.758 51.4474 448.012 51.4608C449.019 51.5281 450.034 51.4967 451.041 51.4608C451.68 51.4384 452.024 51.1067 451.934 50.3402Z" fill="white"/>
<path d="M452.319 44.7324C452.147 45.5482 452.02 46.3103 451.802 47.0499C451.743 47.2471 451.421 47.4982 451.217 47.5027C449.109 47.534 447.001 47.5251 444.829 47.5251V44.7369H452.319V44.7324Z" fill="white"/>
<path d="M486.767 38.5104C486.164 38.5104 485.556 38.4477 484.967 38.5239C483.901 38.6584 483.366 38.2056 482.999 37.2329C481.176 32.3737 479.295 27.5369 477.441 22.6912C476.606 20.5126 475.799 18.325 474.943 16.1554C473.814 13.3089 471.225 11.9552 468.541 12.8069C466.854 13.3403 465.839 14.5865 465.172 16.1375C462.942 21.3419 460.729 26.5597 458.499 31.764C457.107 35.014 454.894 37.4301 451.285 38.1877C446.162 39.2635 441.13 37.7036 438.895 32.1989C435.617 24.1301 432.448 16.021 429.224 7.92976C428.916 7.15874 429.102 6.84047 429.972 6.86289C431.455 6.89875 432.942 6.90771 434.429 6.86289C435.272 6.84047 435.662 7.23943 435.939 7.96562C437.494 12.0628 439.076 16.1465 440.649 20.2391C441.787 23.2022 442.943 26.1562 444.05 29.1282C444.906 31.4323 446.516 32.7906 448.991 32.9609C450.279 33.0506 451.607 32.683 452.292 31.522C453.607 29.2986 454.872 27.0348 455.933 24.6904C457.537 21.1491 458.957 17.5226 460.453 13.932C462.026 10.1442 464.755 7.64735 468.885 6.97944C472.893 6.33393 477.055 7.74597 479.204 11.6504C480.728 14.4162 481.829 17.4151 483.017 20.3512C485.289 25.9725 487.492 31.6251 489.714 37.2687C490.194 38.4835 490.171 38.506 488.852 38.5104C488.757 38.5104 488.662 38.5104 488.566 38.5104C487.963 38.5104 487.365 38.5104 486.762 38.5104H486.767Z" stroke="white" stroke-width="2" mask="url(#path-1-inside-1_1_1037)"/>
<path d="M391.848 20.3153C391.848 24.2915 391.862 28.2631 391.848 32.2392C391.834 35.0095 389.985 37.6901 387.382 38.3222C383.792 39.1918 380.314 38.9946 377.571 36.1122C376.81 35.3098 376.207 34.3147 375.717 33.315C372.611 27.0214 369.56 20.7053 366.491 14.3938C366.382 14.1696 366.255 13.95 366.137 13.7348C365.765 13.0714 365.158 12.8203 364.455 13.0041C363.743 13.1924 363.272 13.6945 363.186 14.461C363.163 14.6762 363.186 14.9003 363.186 15.1199C363.186 22.5029 363.186 29.8903 363.186 37.2732C363.186 38.5463 363.045 38.6898 361.785 38.6942C360.71 38.6942 359.631 38.6808 358.557 38.6987C357.89 38.7077 357.559 38.3984 357.523 37.7618C357.509 37.5422 357.505 37.3225 357.505 37.1074C357.505 29.5048 357.505 21.9022 357.505 14.2951C357.505 12.0538 358.117 10.0321 359.853 8.48561C361.73 6.81358 364.038 6.72841 366.35 6.97944C369.438 7.32012 371.478 9.14456 372.82 11.8297C375.989 18.1547 379.154 24.4842 382.354 30.7958C382.622 31.3247 383.043 31.8851 383.542 32.172C384.825 32.8982 386.113 32.154 386.276 30.6927C386.308 30.4148 386.285 30.1279 386.285 29.85C386.285 22.6508 386.285 15.4561 386.285 8.25699C386.285 7.06909 386.444 6.9122 387.65 6.90771C388.661 6.90323 389.676 6.90323 390.687 6.90771C391.485 6.9122 391.871 7.25288 391.862 8.11355C391.83 12.1793 391.848 16.2496 391.848 20.3153Z" stroke="white" stroke-width="2" mask="url(#path-1-inside-1_1_1037)"/>
<path d="M395.407 22.4625C395.112 18.3385 396.568 14.7479 399.238 11.6011C401.301 9.16697 404.021 7.78183 407.118 7.14529C410.985 6.35186 414.875 6.25325 418.679 7.47253C424.292 9.27007 427.733 13.1341 428.839 18.8092C429.56 22.5074 429.537 26.2549 427.896 29.8186C425.747 34.4895 422.188 37.5422 417.06 38.3356C412.467 39.0484 407.784 39.1918 403.454 37.0088C398.898 34.7181 396.323 30.9572 395.57 25.968C395.52 25.6273 395.421 25.2911 395.412 24.9504C395.389 24.139 395.402 23.3232 395.402 22.4625H395.407ZM412.227 33.7588C418.52 34.4492 423.738 29.0341 423.512 22.3639C423.339 17.2537 419.468 11.6638 412.059 11.7579C405.866 11.8386 401.178 16.3706 400.952 22.3505C400.716 28.4917 405.359 34.3819 412.227 33.7633V33.7588Z" stroke="white" stroke-width="2" mask="url(#path-1-inside-1_1_1037)"/>
<path d="M347.15 22.7091C347.15 17.8319 347.168 12.9548 347.132 8.07769C347.127 7.20805 347.358 6.81358 348.288 6.8584C349.453 6.91668 350.623 6.89427 351.792 6.88082C352.491 6.87185 352.74 7.2215 352.731 7.87148C352.713 8.9025 352.731 9.93351 352.731 10.9645C352.731 19.6878 352.731 28.411 352.731 37.1343C352.731 38.4835 352.704 38.5104 351.348 38.5104C350.305 38.5104 349.258 38.4656 348.22 38.5239C347.376 38.5687 347.132 38.2415 347.136 37.4346C347.163 32.5261 347.15 27.6176 347.15 22.7091Z" stroke="white" stroke-width="2" mask="url(#path-1-inside-1_1_1037)"/>
<path d="M366.192 46.0234V54.2311H362.791V40.8952C363.943 40.8952 365.103 40.8638 366.255 40.9221C366.495 40.9356 366.795 41.2269 366.931 41.469C368.486 44.1407 370.05 46.8034 371.523 49.5199C371.954 50.3133 372.099 51.2546 372.412 52.2408C373.464 48.2199 376.052 45.1089 377.875 41.6035C378.165 41.0476 378.541 40.8549 379.154 40.8818C380.124 40.9221 381.098 40.8907 382.123 40.8907V54.2222H378.777V46.1534C378.582 46.2072 378.478 46.2206 378.473 46.243C378.319 48.4978 376.918 50.1967 375.812 52.0212C374.33 54.4597 374.33 54.4463 371.451 54.3297C370.825 54.3028 370.394 54.1191 370.063 53.5542C369.433 52.4784 368.644 51.4877 368.078 50.3805C367.384 49.0223 366.853 47.5789 366.187 46.0234H366.192Z" stroke="white" stroke-width="2" mask="url(#path-1-inside-1_1_1037)"/>
<path d="M465.231 54.2804C463.903 54.2804 462.574 54.3342 461.251 54.267C459.836 54.1953 458.707 53.478 457.955 52.3305C456.059 49.4257 456.032 45.5213 458.122 42.6748C459.002 41.478 460.285 40.8952 461.799 40.8907C463.889 40.8818 465.975 40.8907 468.065 40.8907C471.016 40.8907 472.676 42.128 473.501 44.9475C474.249 47.4937 474.027 49.9367 472.617 52.2139C471.764 53.5946 470.468 54.2715 468.831 54.2849C467.63 54.2939 466.428 54.2849 465.227 54.2849L465.231 54.2804ZM465.295 43.9524C464.506 43.9524 463.712 43.9434 462.924 43.9524C461.686 43.9614 460.707 44.5576 460.457 45.7096C460.244 46.6958 460.104 47.7716 460.271 48.7533C460.566 50.4791 461.273 51.3129 463.277 51.2681C464.796 51.2322 466.31 51.2591 467.829 51.2367C468.799 51.2188 469.534 50.775 469.91 49.8785C470.531 48.4082 470.54 46.9109 469.955 45.4272C469.57 44.45 468.808 43.9793 467.761 43.9614C466.94 43.9479 466.115 43.9614 465.295 43.9614V43.9524Z" stroke="white" stroke-width="2" mask="url(#path-1-inside-1_1_1037)"/>
<path d="M396.4 54.2446V44.71H399.002C399.043 45.1089 399.084 45.5258 399.152 46.2341C400.022 44.5307 401.419 44.6338 402.806 44.6382C406.093 44.6562 409.385 44.6427 412.672 44.6427C415.256 44.6427 416.625 45.7589 416.829 48.323C416.983 50.246 416.861 52.187 416.861 54.1997H414.245C414.218 53.8501 414.186 53.4915 414.145 53.0029C412.295 55.1546 409.874 54.1863 407.68 54.2401C406.551 54.267 406.002 53.348 405.753 52.2722C405.372 50.6181 406.27 48.5919 408.455 48.7488C410.151 48.8699 411.86 48.7712 413.551 48.7712C413.751 47.8433 413.338 47.5206 412.554 47.5206C408.727 47.5206 404.901 47.5206 401.074 47.5206C400.335 47.5206 399.827 47.8568 399.782 48.5964C399.696 50.0578 399.678 51.5236 399.637 52.9894C399.623 53.4108 399.637 53.8322 399.637 54.2446H396.4ZM413.578 50.3402C412.254 50.3402 410.994 50.3088 409.734 50.3671C409.462 50.3805 409.208 50.7212 408.949 50.9095C409.19 51.1022 409.421 51.4474 409.67 51.4608C410.677 51.5191 411.688 51.4922 412.694 51.4608C413.333 51.4429 413.678 51.1112 413.578 50.3402Z" stroke="white" stroke-width="2" mask="url(#path-1-inside-1_1_1037)"/>
<path d="M431.536 40.5232H434.737V46.0099C436.32 44.2034 438.192 44.4545 440.001 44.8669C441.483 45.2031 442.39 46.3103 442.522 47.803C442.685 49.6992 442.667 51.6088 442.735 53.5139C442.753 54.0608 442.522 54.3253 441.955 54.3163C441.166 54.3028 440.382 54.3163 439.448 54.3163C439.448 52.7743 439.461 51.286 439.439 49.7933C439.43 49.3361 439.384 48.8564 439.235 48.4216C438.854 47.2965 438.147 47.4937 436.066 47.5564C435.182 47.5833 434.764 48.2244 434.764 49.094C434.764 50.4388 434.764 51.7836 434.764 53.1284C434.764 53.4691 434.764 53.8053 434.764 54.2849H431.546V40.5232H431.536Z" stroke="white" stroke-width="2" mask="url(#path-1-inside-1_1_1037)"/>
<path d="M391.358 48.7757C391.467 47.8523 391.059 47.5116 390.225 47.5206C388.266 47.534 386.303 47.5206 384.263 47.5206V44.6607C386.652 44.6607 389.023 44.5351 391.376 44.701C393.24 44.831 394.437 46.2117 394.623 48.3813C394.786 50.2998 394.659 52.2408 394.659 54.2311H392.002C391.97 53.8277 391.943 53.4332 391.907 52.9715C390.016 55.177 387.523 54.2804 385.242 54.2266C384.05 54.1997 383.302 52.7115 383.433 51.1471C383.547 49.7754 384.485 48.7937 385.755 48.7802C387.618 48.7623 389.481 48.7757 391.354 48.7757H391.358ZM391.372 50.3402C390.053 50.3402 388.792 50.3088 387.532 50.3626C387.255 50.376 386.997 50.6943 386.729 50.8691C386.988 51.0753 387.233 51.4384 387.505 51.4564C388.443 51.5281 389.395 51.4833 390.338 51.4743C391.018 51.4698 391.386 51.1426 391.372 50.3312V50.3402Z" stroke="white" stroke-width="2" mask="url(#path-1-inside-1_1_1037)"/>
<path d="M426.531 54.258C426.531 53.6125 426.549 52.9715 426.531 52.3305C426.486 51.0574 426.586 49.7485 426.314 48.5247C425.942 46.8258 424.414 47.7044 423.376 47.543C422.619 47.4265 422.088 47.8209 422.034 48.6323C421.952 49.874 421.898 51.1157 421.848 52.3574C421.825 52.9491 421.848 53.5408 421.848 54.2087H418.615V44.7144H421.213C421.281 45.0372 421.345 45.3375 421.413 45.6558C423.53 44.3648 425.702 44.2214 427.919 45.212C429.056 45.7186 429.582 46.6868 429.637 47.9061C429.732 49.9905 429.823 52.075 429.918 54.258H426.531Z" stroke="white" stroke-width="2" mask="url(#path-1-inside-1_1_1037)"/>
<path d="M451.988 48.7757C451.947 48.3319 451.916 47.9778 451.875 47.5699C452.836 47.2875 453.788 47.0051 454.785 46.7092C455.656 49.1971 455.13 51.6984 455.284 54.2266H452.632C452.573 53.8546 452.514 53.4736 452.419 52.855C451.648 54.267 450.483 54.3656 449.254 54.3387C448.212 54.3163 447.169 54.3432 446.126 54.2939C445.052 54.2446 444.317 53.5408 444.208 52.4829C444.149 51.9315 444.145 51.3667 444.199 50.8153C444.335 49.4661 445.124 48.7892 446.516 48.7847C448.311 48.7757 450.111 48.7847 451.993 48.7847L451.988 48.7757ZM451.934 50.3402C450.646 50.3402 449.359 50.3133 448.071 50.3626C447.808 50.3716 447.559 50.654 447.3 50.8109C447.536 51.0395 447.758 51.4474 448.012 51.4608C449.019 51.5281 450.034 51.4967 451.041 51.4608C451.68 51.4384 452.024 51.1067 451.934 50.3402Z" stroke="white" stroke-width="2" mask="url(#path-1-inside-1_1_1037)"/>
<path d="M452.319 44.7324C452.147 45.5482 452.02 46.3103 451.802 47.0499C451.743 47.2471 451.421 47.4982 451.217 47.5027C449.109 47.534 447.001 47.5251 444.829 47.5251V44.7369H452.319V44.7324Z" stroke="white" stroke-width="2" mask="url(#path-1-inside-1_1_1037)"/>
<path d="M311.664 0V61" stroke="white" stroke-width="3" stroke-miterlimit="10"/>
<mask id="path-3-inside-2_1_1037" fill="white">
<path d="M75.6819 50.8834L69.6474 44.8023V25.7638H63.0871V17.6312H69.6474V8.77222H80.0796V17.6312H91.2961V25.7638H80.0796V41.4304L80.9319 42.2894H91.822V50.8834H75.6819Z"/>
<path d="M97.7884 50.8834V17.6312H106.121V20.2766H107.368L110.451 17.6312H122.52V26.2253H111.304L108.221 28.7381V50.8834H97.7884Z"/>
<path d="M126.455 12.409V4.60541H137.146V12.4045H126.455V12.409ZM126.587 50.8834V17.6312H137.019V50.8834H126.587Z"/>
<path d="M147.184 50.8834V12.674H140.623V4.60541H157.616V50.8788H147.184V50.8834Z"/>
<path d="M166.928 50.8834V4.60541H177.36V19.6096H178.018L180.443 17.6267H194.348L201.629 24.9643V50.8788H191.197V28.4686L188.967 26.2207H180.702L177.356 28.93V50.8788H166.924L166.928 50.8834Z"/>
<path d="M214.356 50.8834L208.321 44.8023V36.3407L214.555 30.0585H232.79V27.9432L230.886 25.9603H212.782V17.6312H236.462L243.217 24.4388V50.8834H234.884V48.1741H233.833L230.618 50.8834H214.351H214.356ZM229.77 42.9519L232.79 40.5075V36.8067H220.39L218.749 38.4607V41.764L219.928 42.9519H229.77Z"/>
<path d="M251.093 50.8834V42.9519H272.152L273.331 41.764V39.4521L272.152 38.1957H256.606L250.571 32.1785V23.6484L256.606 17.6312H281.927V25.5628H262.182L261.003 26.7507V29.0625L262.182 30.2504H277.728L283.763 36.3316V44.7931L277.728 50.8743H251.097L251.093 50.8834Z"/>
<path d="M39.9559 7.11829H7.48069L0 15.2463L0.394436 47.7766L7.67564 54.7213H38.9721L47.2417 47.7766L47.6361 14.8488L39.9605 7.11372L39.9559 7.11829ZM41.3523 44.8936L39.7836 46.2095H35.1003L33.6858 44.8662L33.6767 44.1169H16.1129L12.0507 40.0232V33.3253L16.1129 29.2316H28.6714L30.8884 26.9974V23.4611L28.6714 21.2269H13.9549L13.9458 22.0996L12.3771 23.42H7.69377L6.27924 22.0722L6.2203 17.1744L7.63483 15.6346H12.5449L14.0002 17.1058L13.9911 18.0653H30.3353L34.3976 22.159V28.2995L30.3353 32.3932H17.7768L15.5598 34.6274V38.7211L17.7768 40.9553H33.6404L33.6313 39.9684L35.0459 38.4287H39.9514L41.4113 39.8953L41.3523 44.8936Z"/>
</mask>
<path d="M75.6819 50.8834L69.6474 44.8023V25.7638H63.0871V17.6312H69.6474V8.77222H80.0796V17.6312H91.2961V25.7638H80.0796V41.4304L80.9319 42.2894H91.822V50.8834H75.6819Z" fill="white"/>
<path d="M97.7884 50.8834V17.6312H106.121V20.2766H107.368L110.451 17.6312H122.52V26.2253H111.304L108.221 28.7381V50.8834H97.7884Z" fill="white"/>
<path d="M126.455 12.409V4.60541H137.146V12.4045H126.455V12.409ZM126.587 50.8834V17.6312H137.019V50.8834H126.587Z" fill="white"/>
<path d="M147.184 50.8834V12.674H140.623V4.60541H157.616V50.8788H147.184V50.8834Z" fill="white"/>
<path d="M166.928 50.8834V4.60541H177.36V19.6096H178.018L180.443 17.6267H194.348L201.629 24.9643V50.8788H191.197V28.4686L188.967 26.2207H180.702L177.356 28.93V50.8788H166.924L166.928 50.8834Z" fill="white"/>
<path d="M214.356 50.8834L208.321 44.8023V36.3407L214.555 30.0585H232.79V27.9432L230.886 25.9603H212.782V17.6312H236.462L243.217 24.4388V50.8834H234.884V48.1741H233.833L230.618 50.8834H214.351H214.356ZM229.77 42.9519L232.79 40.5075V36.8067H220.39L218.749 38.4607V41.764L219.928 42.9519H229.77Z" fill="white"/>
<path d="M251.093 50.8834V42.9519H272.152L273.331 41.764V39.4521L272.152 38.1957H256.606L250.571 32.1785V23.6484L256.606 17.6312H281.927V25.5628H262.182L261.003 26.7507V29.0625L262.182 30.2504H277.728L283.763 36.3316V44.7931L277.728 50.8743H251.097L251.093 50.8834Z" fill="white"/>
<path d="M39.9559 7.11829H7.48069L0 15.2463L0.394436 47.7766L7.67564 54.7213H38.9721L47.2417 47.7766L47.6361 14.8488L39.9605 7.11372L39.9559 7.11829ZM41.3523 44.8936L39.7836 46.2095H35.1003L33.6858 44.8662L33.6767 44.1169H16.1129L12.0507 40.0232V33.3253L16.1129 29.2316H28.6714L30.8884 26.9974V23.4611L28.6714 21.2269H13.9549L13.9458 22.0996L12.3771 23.42H7.69377L6.27924 22.0722L6.2203 17.1744L7.63483 15.6346H12.5449L14.0002 17.1058L13.9911 18.0653H30.3353L34.3976 22.159V28.2995L30.3353 32.3932H17.7768L15.5598 34.6274V38.7211L17.7768 40.9553H33.6404L33.6313 39.9684L35.0459 38.4287H39.9514L41.4113 39.8953L41.3523 44.8936Z" fill="white"/>
<path d="M75.6819 50.8834L69.6474 44.8023V25.7638H63.0871V17.6312H69.6474V8.77222H80.0796V17.6312H91.2961V25.7638H80.0796V41.4304L80.9319 42.2894H91.822V50.8834H75.6819Z" stroke="white" stroke-width="2" mask="url(#path-3-inside-2_1_1037)"/>
<path d="M97.7884 50.8834V17.6312H106.121V20.2766H107.368L110.451 17.6312H122.52V26.2253H111.304L108.221 28.7381V50.8834H97.7884Z" stroke="white" stroke-width="2" mask="url(#path-3-inside-2_1_1037)"/>
<path d="M126.455 12.409V4.60541H137.146V12.4045H126.455V12.409ZM126.587 50.8834V17.6312H137.019V50.8834H126.587Z" stroke="white" stroke-width="2" mask="url(#path-3-inside-2_1_1037)"/>
<path d="M147.184 50.8834V12.674H140.623V4.60541H157.616V50.8788H147.184V50.8834Z" stroke="white" stroke-width="2" mask="url(#path-3-inside-2_1_1037)"/>
<path d="M166.928 50.8834V4.60541H177.36V19.6096H178.018L180.443 17.6267H194.348L201.629 24.9643V50.8788H191.197V28.4686L188.967 26.2207H180.702L177.356 28.93V50.8788H166.924L166.928 50.8834Z" stroke="white" stroke-width="2" mask="url(#path-3-inside-2_1_1037)"/>
<path d="M214.356 50.8834L208.321 44.8023V36.3407L214.555 30.0585H232.79V27.9432L230.886 25.9603H212.782V17.6312H236.462L243.217 24.4388V50.8834H234.884V48.1741H233.833L230.618 50.8834H214.351H214.356ZM229.77 42.9519L232.79 40.5075V36.8067H220.39L218.749 38.4607V41.764L219.928 42.9519H229.77Z" stroke="white" stroke-width="2" mask="url(#path-3-inside-2_1_1037)"/>
<path d="M251.093 50.8834V42.9519H272.152L273.331 41.764V39.4521L272.152 38.1957H256.606L250.571 32.1785V23.6484L256.606 17.6312H281.927V25.5628H262.182L261.003 26.7507V29.0625L262.182 30.2504H277.728L283.763 36.3316V44.7931L277.728 50.8743H251.097L251.093 50.8834Z" stroke="white" stroke-width="2" mask="url(#path-3-inside-2_1_1037)"/>
<path d="M39.9559 7.11829H7.48069L0 15.2463L0.394436 47.7766L7.67564 54.7213H38.9721L47.2417 47.7766L47.6361 14.8488L39.9605 7.11372L39.9559 7.11829ZM41.3523 44.8936L39.7836 46.2095H35.1003L33.6858 44.8662L33.6767 44.1169H16.1129L12.0507 40.0232V33.3253L16.1129 29.2316H28.6714L30.8884 26.9974V23.4611L28.6714 21.2269H13.9549L13.9458 22.0996L12.3771 23.42H7.69377L6.27924 22.0722L6.2203 17.1744L7.63483 15.6346H12.5449L14.0002 17.1058L13.9911 18.0653H30.3353L34.3976 22.159V28.2995L30.3353 32.3932H17.7768L15.5598 34.6274V38.7211L17.7768 40.9553H33.6404L33.6313 39.9684L35.0459 38.4287H39.9514L41.4113 39.8953L41.3523 44.8936Z" stroke="white" stroke-width="2" mask="url(#path-3-inside-2_1_1037)"/>
</svg>
